<?xml version="1.0" encoding="UTF-8"?>
<svg id="Layer_1" data-name="Layer 1" xmlns="http://www.w3.org/2000/svg" viewBox="0 0 720 720">
  <defs>
    <style>
      .cls-1 {
        fill: #04e;
      }

      .cls-2 {
        fill: #e9effd;
      }
    </style>
  </defs>
  <g>
    <path class="cls-1" d="M74.53,448.94l29.12,16.81c1.43.83,2.93,1.49,4.46,1.99v-69.94h-14.97c-.05,19.43-7.04,37.26-18.61,51.14Z"/>
    <path class="cls-1" d="M123.11,467.74c1.53-.5,3.02-1.16,4.45-1.99l29.12-16.81c-11.57-13.88-18.56-31.71-18.61-51.14h-14.96v69.94Z"/>
    <path class="cls-1" d="M200.68,297.69l-73.12-42.22c-7.4-4.27-16.51-4.27-23.91,0l-73.12,42.22c-7.4,4.27-11.95,12.16-11.95,20.7v84.44c0,8.54,4.55,16.43,11.95,20.7l30.78,17.78c10.41-11.54,16.78-26.79,16.83-43.51h-38.26v-29.39h12.02c23.08,0,25.78-67.33,25.78-67.33h-5.05v-10.54h85.96v10.54h-5.05s2.7,67.33,25.78,67.33h12.02v29.39h-38.27c.05,16.72,6.41,31.97,16.82,43.51h.01l30.78-17.78c7.4-4.27,11.96-12.16,11.96-20.7v-84.44c0-8.54-4.56-16.43-11.96-20.7Z"/>
    <polygon class="cls-1" points="123.11 340.38 133.4 340.38 115.61 309.56 97.81 340.38 108.11 340.38 108.11 397.59 108.11 397.8 123.11 397.8 123.11 397.59 123.11 340.38"/>
    <polygon class="cls-1" points="153.07 370.77 163.36 370.77 145.57 339.95 127.78 370.77 138.07 370.77 138.07 397.59 138.07 397.8 153.07 397.8 153.07 397.59 153.07 370.77"/>
    <polygon class="cls-1" points="93.15 397.6 93.15 370.57 103.44 370.57 85.65 339.75 67.85 370.57 78.15 370.57 78.15 397.59 78.14 397.59 78.14 397.8 93.14 397.8 93.14 397.6 93.15 397.6"/>
  </g>
  <g>
    <path class="cls-2" d="M257.31,303.17h23.7c8.82,0,15,5.16,15,12.54,0,4.44-2.76,8.16-6.9,10.32,5.16,1.98,8.7,6.18,8.7,11.58,0,7.98-6.42,13.56-15.6,13.56h-24.9v-48ZM279.81,321.47c2.4,0,4.08-1.68,4.08-4.14s-1.68-4.08-4.08-4.08h-10.8v8.22h10.8ZM280.59,341.09c2.94,0,4.98-2.04,4.98-4.98s-2.04-5.04-4.98-5.04h-11.58v10.02h11.58Z"/>
    <path class="cls-2" d="M319.41,303.17h11.64l18.66,48h-11.94l-3.48-9.24h-18l-3.48,9.24h-12l18.6-48ZM330.69,332.21l-5.4-14.28-5.4,14.28h10.8Z"/>
    <path class="cls-2" d="M355.11,303.17h23.1c9.18,0,15.6,6.24,15.6,15.18,0,6.72-3.9,12.18-9.84,14.34l12.06,18.48h-13.2l-11.04-17.34h-4.98v17.34h-11.7v-48ZM377.49,323.33c2.76,0,4.62-1.98,4.62-4.8s-1.86-4.86-4.62-4.86h-10.68v9.66h10.68Z"/>
    <path class="cls-2" d="M401.67,303.17h35.58v10.2h-23.88v8.04h20.28v10.26h-20.28v9.24h23.88v10.26h-35.58v-48Z"/>
    <path class="cls-2" d="M466.64,303.17h16.38l12.78,32.52,12.78-32.52h16.44v48h-11.58v-30.18l-12,30.18h-11.4l-11.88-30v30h-11.52v-48Z"/>
    <path class="cls-2" d="M534.62,303.17h35.58v10.2h-23.88v8.04h20.28v10.26h-20.28v9.24h23.88v10.26h-35.58v-48Z"/>
    <path class="cls-2" d="M589.04,313.67h-13.74v-10.5h38.94v10.5h-13.56v37.5h-11.64v-37.5Z"/>
    <path class="cls-2" d="M629.84,303.17h11.64l18.66,48h-11.94l-3.48-9.24h-18l-3.48,9.24h-12l18.6-48ZM641.12,332.21l-5.4-14.28-5.4,14.28h10.8Z"/>
    <path class="cls-2" d="M665.54,303.17h11.7v37.5h24.18v10.5h-35.88v-48Z"/>
    <path class="cls-2" d="M254.91,400.39h12c0,3.48,2.22,6.18,6.54,6.18,3.06,0,5.28-1.38,5.28-4.02,0-3.3-3.66-4.62-8.34-6.72-7.44-3.24-14.46-6.54-14.46-14.82s7.38-13.5,16.62-13.5c9.9,0,16.26,6.3,16.26,15.54h-11.4c0-3.12-1.92-5.04-4.86-5.04-2.7,0-4.62,1.62-4.62,3.66,0,2.64,3.06,3.48,9.72,6.12,7.08,2.76,13.26,6.12,13.26,14.46,0,9.18-7.2,14.58-17.22,14.58-11.16,0-18.78-6.78-18.78-16.44Z"/>
    <path class="cls-2" d="M307.29,378.67h-13.74v-10.5h38.94v10.5h-13.56v37.5h-11.64v-37.5Z"/>
    <path class="cls-2" d="M348.09,368.17h11.64l18.66,48h-11.94l-3.48-9.24h-18l-3.48,9.24h-12l18.6-48ZM359.37,397.21l-5.4-14.28-5.4,14.28h10.8Z"/>
    <path class="cls-2" d="M383.79,368.17h12.9l16.5,29.82v-29.82h11.64v48h-12.9l-16.44-29.82v29.82h-11.7v-48Z"/>
    <path class="cls-2" d="M434.43,368.17h19.56c14.58,0,24.78,10.02,24.78,24.18s-10.2,23.82-24.78,23.82h-19.56v-48ZM453.81,405.13c7.68,0,13.02-5.28,13.02-12.78s-5.34-13.14-13.02-13.14h-7.68v25.92h7.68Z"/>
    <path class="cls-2" d="M497.61,368.17h11.64l18.66,48h-11.94l-3.48-9.24h-18l-3.48,9.24h-12l18.6-48ZM508.89,397.21l-5.4-14.28-5.4,14.28h10.8Z"/>
    <path class="cls-2" d="M533.31,368.17h23.1c9.18,0,15.6,6.24,15.6,15.18,0,6.72-3.9,12.18-9.84,14.34l12.06,18.48h-13.2l-11.04-17.34h-4.98v17.34h-11.7v-48ZM555.69,388.33c2.76,0,4.62-1.98,4.62-4.8s-1.86-4.86-4.62-4.86h-10.68v9.66h10.68Z"/>
    <path class="cls-2" d="M579.87,368.17h19.56c14.58,0,24.78,10.02,24.78,24.18s-10.2,23.82-24.78,23.82h-19.56v-48ZM599.24,405.13c7.68,0,13.02-5.28,13.02-12.78s-5.34-13.14-13.02-13.14h-7.68v25.92h7.68Z"/>
  </g>
</svg>