<?xml version="1.0" encoding="UTF-8"?>
<svg id="Layer_1" data-name="Layer 1" xmlns="http://www.w3.org/2000/svg" viewBox="0 0 720 720">
  <defs>
    <style>
      .cls-1 {
        fill: #04e;
      }
    </style>
  </defs>
  <path class="cls-1" d="M318.92,448.94l29.12,16.81c1.43.83,2.93,1.49,4.46,1.99v-69.94h-14.97c-.05,19.43-7.04,37.26-18.61,51.14Z"/>
  <path class="cls-1" d="M367.5,467.74c1.53-.5,3.02-1.16,4.45-1.99l29.12-16.81c-11.57-13.88-18.56-31.71-18.61-51.14h-14.96v69.94Z"/>
  <path class="cls-1" d="M445.07,297.69l-73.12-42.22c-7.4-4.27-16.51-4.27-23.91,0l-73.12,42.22c-7.4,4.27-11.95,12.16-11.95,20.7v84.44c0,8.54,4.55,16.43,11.95,20.7l30.78,17.78c10.41-11.54,16.78-26.79,16.83-43.51h-38.26v-29.39h12.02c23.08,0,25.78-67.33,25.78-67.33h-5.05v-10.54h85.96v10.54h-5.05s2.7,67.33,25.78,67.33h12.02v29.39h-38.27c.05,16.72,6.41,31.97,16.82,43.51h.01l30.78-17.78c7.4-4.27,11.96-12.16,11.96-20.7v-84.44c0-8.54-4.56-16.43-11.96-20.7Z"/>
  <polygon class="cls-1" points="367.5 340.38 377.79 340.38 360 309.56 342.2 340.38 352.5 340.38 352.5 397.59 352.5 397.8 367.5 397.8 367.5 397.59 367.5 340.38"/>
  <polygon class="cls-1" points="397.46 370.77 407.75 370.77 389.96 339.95 372.17 370.77 382.46 370.77 382.46 397.59 382.46 397.8 397.46 397.8 397.46 397.59 397.46 370.77"/>
  <polygon class="cls-1" points="337.54 397.6 337.54 370.57 347.83 370.57 330.04 339.75 312.24 370.57 322.54 370.57 322.54 397.59 322.53 397.59 322.53 397.8 337.53 397.8 337.53 397.6 337.54 397.6"/>
</svg>