<svg width="90" height="54" viewBox="0 0 90 54" fill="none" xmlns="http://www.w3.org/2000/svg">
<path d="M90 32.5315V37.6214C89.1949 40.9432 87.7346 44.7075 83.5191 44.4176C79.5397 44.1432 77.9802 39.6707 77.9978 36.2139L78.0243 31.1727C79.3765 30.9668 80.336 30.9713 81.7081 31.0952C82.2662 33.1378 80.775 39.5091 83.9294 39.3962C86.8346 39.2922 85.8728 33.5008 85.4118 31.5887C84.8294 29.1721 83.8699 26.9768 82.7625 24.7416C79.6897 18.5407 76.5904 11.1669 79.0566 4.29327C79.875 2.01386 81.7765 0.230159 84.2603 0.261141C86.2677 0.285484 87.9221 1.68854 88.7051 3.46339C89.1772 4.5367 89.7441 5.87779 89.7441 7.04406L89.7375 13.8513C88.4162 14.1036 87.3882 14.1102 86.0802 13.827L85.95 7.67919C85.9324 6.85595 85.3301 5.82911 84.5846 5.61445C83.5213 5.31126 82.5618 6.22745 82.4074 7.29855C81.964 10.4012 82.5618 13.588 83.903 16.4494L86.5985 22.1944C88.1713 25.5494 89.3118 28.9773 89.9956 32.527L90 32.5315Z" fill="#CC2211"/>
<path d="M72.7941 0C77.1 2.23958 76.7603 6.63022 76.5044 11.0806C76.2574 11.8972 73.1735 11.8485 72.7412 11.1448L72.5647 5.99951C72.5427 5.35995 71.861 4.68276 71.3228 4.67612C68.9294 4.64514 70.3147 10.2419 71.2478 12.1517L74.2191 18.2309C76.1427 22.1634 77.689 27.9284 76.1272 32.1375C75.4566 33.9434 73.8022 34.9746 71.9074 34.667C66.45 33.7796 65.0052 28.0213 65.8677 23.3031C66.0508 22.3051 69.5802 23.0287 69.6066 23.6838L69.7919 28.028C69.836 29.0791 70.6677 30.1768 71.8191 29.9754C72.3485 29.8825 72.6066 28.9286 72.611 28.3422C72.6243 25.3347 71.6802 22.6237 70.3257 19.9814C67.8794 15.2101 64.9258 10.1534 66.0485 4.70931C66.5228 2.4122 67.939 0.929474 69.9265 0.00443037H72.7941V0Z" fill="#CC2211"/>
<path d="M0 43.5966V0.885209C0.370588 0.728085 1.06103 0.455882 1.50661 0.455882L8.84338 0.478014C9.38603 0.478014 9.88236 1.03348 9.88015 1.49601L9.86691 3.8241C9.86691 4.09631 9.3772 4.60973 9.09044 4.61194L4.0125 4.66284V18.9767L8.4728 19.1006C8.79265 20.4063 8.85662 21.6345 8.39559 22.7941L4.02133 22.8982L4.00588 43.7581C3.68162 44.4309 0.185292 44.5216 0.00440934 43.5988L0 43.5966Z" fill="#CC2211"/>
<path d="M24.011 53.9978H22.9654C22.2066 53.3272 21.45 52.5128 20.9956 51.5258L18.5118 46.1371L13.4007 52.0016C12.9706 52.4951 11.8721 51.6077 11.7132 51.1164C11.5544 50.6251 11.7441 49.8727 12.1632 49.3571L19.8066 39.9229C17.7 40.3656 16.1537 41.2021 14.2478 41.7066C13.6765 41.8571 13.2397 40.6621 13.3059 40.1952C13.3897 39.6065 13.8397 38.9559 14.4684 38.6505C17.7507 37.0615 21.1125 35.8045 24.7324 35.5035C27.4654 35.2756 29.8875 36.5857 30.9375 39.0886C31.9743 41.5606 28.3941 43.8466 26.85 44.4198L22.0103 46.2124L24.8647 51.7051C25.0346 52.0326 25.1824 52.94 24.9882 53.2454C24.814 53.5153 24.3441 53.7743 24.011 54V53.9978ZM20.0206 44.017C23.3757 43.7006 26.0074 42.4237 28.4603 40.7639C28.6809 40.3744 28.9368 39.8566 28.9588 39.5534C29.0515 38.1968 24.0684 38.6527 23.2169 38.9359C23.2412 39.1904 23.3029 39.7725 23.1529 39.9672L20.0206 44.017Z" fill="#CC2211"/>
<path d="M25.1801 51.5856C24.686 51.0036 25.1845 49.8882 25.7404 49.5275L27.7059 48.2572L26.5853 47.7637C26.2831 47.6309 26.3206 46.5001 26.5809 46.2655C29.989 43.1827 34.9037 43.0079 34.2684 44.7695C33.7853 46.1061 32.3096 46.2168 31.0919 46.0995C30.3993 46.0331 29.4904 46.4801 28.8507 46.9648L30.8316 47.029C31.039 47.0356 31.3257 47.5247 31.2904 47.7216C31.1206 48.6445 27.7191 48.9454 27.2162 50.4415C29.5323 49.7997 31.6698 48.837 33.4654 47.5225C34.7956 46.5487 36.7588 44.1144 39.4279 44.8115C39.6838 44.8779 40.0323 45.159 40.147 45.3471C40.725 46.3009 38.561 47.8301 37.1912 47.912L37.3301 47.04C36.1478 47.6951 34.9125 48.5294 34.3456 50.2002C36.5272 50.0165 38.6757 49.0716 40.2176 47.4339C44.164 43.2403 43.4581 45.5839 46.0787 43.9949C46.3985 43.8002 47.1022 44.2273 47.2941 44.5393C47.5037 44.8801 47.6426 45.6657 47.475 46.0375L46.5419 48.1067L48.8162 46.8099C48.911 45.8915 49.1007 45.3449 49.8573 44.9487L52.1934 43.7249C52.3985 43.6165 52.9324 43.5811 53.1265 43.6364C53.3581 43.705 53.6735 44.245 53.5324 44.4419L52.9103 45.3072L54.2162 45.6923C54.5051 45.7786 54.6882 46.5465 54.664 46.8785C53.7618 47.7327 52.6853 48.5073 51.8559 49.6403C53.5897 49.0893 55.1956 48.2948 56.6007 47.2591C58.5243 45.8406 60.4853 43.7294 62.7772 44.9111L67.0743 40.0756C67.8772 39.1727 68.4662 38.2366 69.1654 37.2319C69.6441 36.973 70.7493 37.4311 70.9919 38.0994C68.0934 42.0187 64.9875 44.7982 62.1154 49.2398C63.2206 48.9344 64.0081 48.4387 64.9632 47.8965L65.2279 46.5864C66.3662 45.2519 71.9691 42.9039 72.3927 45.0395C72.4963 45.5617 72.0926 46.0929 71.5191 46.3009C69.6287 46.9803 70.4118 45.4179 67.1779 47.4163L69.2184 47.954C69.9 48.1333 70.4029 49.3925 69.8757 49.9988C68.3007 51.8091 64.5397 53.2299 63.7301 51.9286C63.5471 51.6343 63.5338 50.7159 63.8625 50.6185C65.0625 50.3839 66.3993 50.1914 67.5838 49.4478C67.2022 49.1845 66.0176 48.9211 65.614 49.1756C64.5463 49.7089 59.7375 53.3427 58.9743 52.2384L58.7029 50.9438C57.5294 51.8069 56.4088 52.5615 54.9287 52.0702C54.5493 51.9441 54.5537 50.9903 54.6221 50.3551L51.0794 51.9507C50.561 52.1831 49.3125 52.2229 48.9618 51.8113C48.3684 51.1142 48.8978 49.9302 49.4316 49.4102L51.4897 47.4096C50.9404 47.3144 50.5721 47.3609 50.2588 47.5535L46.0125 50.1692C45.7346 50.3396 44.9846 50.3397 44.6051 50.333C43.3368 51.4041 41.7375 52.2849 39.9596 52.1499C39.2162 52.0946 38.7573 51.5081 38.7132 50.7336C36.9794 51.3422 31.9985 54.0465 31.8022 50.5078L29.0051 52.1189C27.8471 52.7873 26.1684 52.7518 25.1801 51.5856ZM45.3176 45.4135C43.6478 46.5399 42.1037 47.8566 41.3316 49.9723C42.1853 50.5698 45.8669 46.219 45.3176 45.4135ZM61.5662 46.4801C59.8963 46.9028 58.5154 48.2129 57.4213 49.3106C57.3441 51.1762 61.4603 46.9404 61.5662 46.4801Z" fill="#CC2211"/>
<path d="M44.3779 30.0197C43.5838 30.3649 42.1985 30.4357 41.4529 30.0396C40.5838 29.5793 40.2022 28.2138 40.2 27.2246L40.1735 19.2422C40.1735 18.8638 39.9221 17.972 39.5713 17.8525C39.0551 17.6776 38.1904 17.6865 37.5265 17.7374L37.4934 30.0374C36.2338 30.5751 35.0294 30.6858 33.5779 30.3494V0.741363C36.0529 0.32974 38.4154 0.261136 40.7912 0.75464C42.6088 1.13307 43.8176 2.9898 43.9257 4.8598C44.0757 7.44019 44.0316 9.9409 43.9897 12.5279C43.9677 13.9177 43.1074 14.9844 42.1544 15.8032C43.3235 16.6641 44.0007 17.9078 44.0052 19.3042L44.0272 26.5851C44.0316 27.9483 45.0728 29.7187 44.3779 30.0219V30.0197ZM40.0235 5.55247C40.0213 5.29355 39.7412 4.6894 39.5426 4.59202C39.0926 4.37072 38.014 4.47031 37.5132 4.5544L37.5176 13.942C38.1375 14.035 39.0507 14.0638 39.5382 13.8071C39.7765 13.6809 40.0235 12.9108 40.0235 12.5169V5.55247Z" fill="#CC2211"/>
<path d="M27.7721 25.514L24.9838 25.9212L24.364 31.7989C23.8125 32.1951 20.7066 33.1777 20.8897 31.6153L24.4963 0.880788C25.8618 0.281059 27.3155 0.323104 28.7691 0.823248L32.1507 29.8714C32.2081 30.3649 31.7294 30.8606 31.3478 30.9093L29.0537 31.2014C28.736 31.2413 28.1824 30.7146 28.1559 30.3826L27.7699 25.514H27.7721ZM27.4169 21.4132L26.5963 11.4613L25.4559 21.6898L27.4169 21.4154V21.4132Z" fill="#CC2211"/>
<path d="M15.0993 17.7042L15.0684 29.7032L18.6375 28.88C19.1515 28.7605 19.714 29.3181 19.7118 29.8448L19.7029 32.3478C19.7029 32.6222 19.2331 33.0914 18.9618 33.1688L12.439 35.0167C12.2206 35.0786 11.7971 35.0277 11.6272 34.9193C11.4574 34.8109 11.2632 34.3328 11.2632 34.0606V1.57346C11.2632 0.960456 11.7662 0.484657 12.3331 0.482444L18.7853 0.478014C19.1426 0.478014 19.811 0.969306 19.811 1.29462L19.8176 3.83517C19.8176 4.2136 19.1956 4.62301 18.8096 4.62522L15.1257 4.64071V13.9664L18.2338 14.0859C18.7963 14.3448 19.0412 17.64 17.9052 17.6599L15.0993 17.7064V17.7042Z" fill="#CC2211"/>
<path d="M59.861 17.6975L59.8434 27.1936L64.339 27.9261C64.6015 27.9682 64.9765 28.548 64.9787 28.8047L64.9875 31.2147C64.9875 31.644 64.4316 32.1663 63.9838 32.0933L56.6801 30.9093C56.3493 30.8562 55.8441 30.5132 55.8441 30.0816V1.35216C55.8441 1.01578 56.3978 0.524485 56.7044 0.51342C59.3735 0.407195 61.9346 0.385063 64.5926 0.615217C64.9235 1.99836 64.9169 3.06947 64.5926 4.4172L59.8676 4.48801L59.8544 13.9863L63.011 14.0549C63.4963 14.451 63.6066 17.5847 62.8302 17.609L59.8632 17.6998L59.861 17.6975Z" fill="#CC2211"/>
<path d="M54.4059 26.6315C54.825 27.3972 54.7302 29.7231 54.5074 30.2321C54.4191 30.4379 53.8765 30.5552 53.636 30.5419L46.736 30.1281C46.3919 30.1082 45.7787 29.8028 45.7787 29.3535L45.7875 0.91177C47.0846 0.289911 48.439 0.267774 49.6919 0.905125L49.7051 26.2531L54.4059 26.6315Z" fill="#CC2211"/>
<path d="M54.1787 41.0449L44.7794 38.2787L45.0529 40.1288L32.9647 35.1118C35.6801 35.145 37.8154 36.0502 40.4272 36.3578L40.1647 33.7066L50.0757 36.7428L49.7581 33.9677L60.9088 38.7323C58.2574 38.75 56.0801 38.022 53.5235 37.7652L54.1809 41.0449H54.1787Z" fill="#CC2211"/>
</svg>
