<svg width="37" height="59" viewBox="0 0 37 59" fill="none" xmlns="http://www.w3.org/2000/svg">
<path d="M37 58.9959L0 59L0.0061396 32.6481C0.981384 32.476 2.17129 32.646 2.80715 31.8779C3.37757 31.1898 3.73333 29.8748 3.73537 28.8794L3.77422 9.01611C3.77626 7.96335 3.70675 7.01503 3.03001 6.27973C2.35326 5.54443 1.32486 5.33142 0.128807 5.2454V0L18.6114 0.133137C22.4981 0.161812 26.1824 2.41686 28.7319 5.23721C32.7862 9.72273 35.3725 19.3922 29.0263 23.4476L32.5409 23.5275L36.9918 29.1907L36.998 58.9959H37ZM21.6108 34.2088C23.0215 37.9856 27.5849 38.0983 29.8073 36.6236C32.4325 34.8826 32.5511 27.9762 32.3568 25.0165L28.8607 25.0042L28.8198 29.6966C28.8157 30.0735 28.2371 30.6449 27.91 30.6265C27.5542 30.6081 27.0738 30.0837 27.0145 29.6516L26.1231 23.1691C25.9022 21.5612 24.6919 20.3364 23.6819 19.0952C28.0715 16.5903 28.3843 10.4212 26.8979 6.40468C25.6917 3.14192 21.4492 1.33337 18.178 1.33132L1.1061 1.31698L1.0836 4.51419C2.13245 4.73745 3.19561 4.74564 3.88053 5.57925C4.44073 6.25925 4.68403 7.45539 4.68608 8.42418L4.70244 28.2649C4.70244 29.7171 4.65745 31.2881 4.11361 32.5518C3.61474 33.709 2.23877 33.6844 1.1245 33.92L1.11632 37.1479H15.1275L15.1071 33.8503C13.3651 33.8852 11.3145 33.0044 11.3063 31.1365L11.2572 21.6206L16.6691 21.5981C17.5156 21.594 18.3947 22.2412 18.8036 22.9827C20.6335 26.2987 19.8811 29.5881 21.6108 34.2108V34.2088ZM24.0335 49.0008C25.4054 48.63 26.1824 47.4278 26.3152 46.3545C26.4645 45.1399 26.1108 43.825 25.0701 43.1307C23.3609 41.9898 21.6619 42.4036 21.345 40.9965C21.2448 40.5479 21.4267 39.788 21.8336 39.573C23.9783 38.4485 24.9515 41.2218 25.2766 41.5433C25.3829 41.6478 25.9677 41.4757 25.9677 41.3262L25.9636 38.4178C23.4345 38.7701 23.4713 37.9713 21.5719 38.3809C20.1223 38.6943 19.5294 39.8351 19.462 41.1747C19.3883 42.6534 20.0119 43.7779 21.4227 44.333C22.4756 44.7467 24.7839 45.5066 24.2564 46.9157C24.0601 47.44 23.5142 47.8354 22.9315 47.8169C20.7193 47.7493 20.4965 45.738 19.9281 45.3345C18.9324 44.6258 19.3945 48.4088 19.3945 48.8144C19.558 49.2732 20.472 48.6649 20.6805 48.3679C21.6925 48.6321 22.8743 49.3141 24.0335 49.0008ZM7.30922 45.5967C8.09841 46.9874 7.45847 49.2199 8.98165 49.7565C9.53572 49.9511 10.4558 49.8569 10.789 49.3305C11.3227 48.4887 11.4208 47.1615 11.2879 46.3033C11.2 46.164 10.4803 46.0616 10.4476 46.2582L10.2943 47.1594C10.2677 47.3172 10.1961 47.61 10.1654 47.735C10.145 47.8169 9.81583 47.6961 9.80356 47.6141L9.7504 47.2209C9.62364 46.2951 9.35989 45.2813 8.98574 44.419C9.69315 43.5321 10.1716 42.5224 9.91601 41.2689C9.70337 40.2243 9.01028 39.2207 7.67928 39.2104L2.38394 39.1715C2.14882 39.1715 1.90347 39.7778 2.03432 39.8618L2.61496 40.2284C2.77852 40.3308 3.13428 40.7609 3.13428 40.9903V47.7411C3.13632 48.3433 2.68448 48.7243 2.12018 48.8861L2.10587 49.7258L6.07228 49.7094C6.17655 49.4985 6.21948 48.9045 6.02934 48.8267L5.25242 48.5133C5.00298 47.567 4.99481 46.3504 5.11339 45.2833C5.69813 45.0764 6.96369 44.9822 7.30922 45.5905V45.5967ZM13.68 50.1252L17.354 49.8282C17.5851 49.0479 16.9533 48.7263 16.2991 48.5194L15.5283 41.3856C15.3851 40.0604 17.2007 40.382 16.2173 39.2453L12.488 39.6426C12.3429 40.3595 12.8847 40.6708 13.5675 40.8265L14.322 47.9378C14.3711 48.3965 13.9069 48.9578 13.5287 49.2322C13.2915 49.4043 13.3856 50.1518 13.68 50.1273V50.1252ZM30.8746 48.0811C30.6906 46.8993 30.7335 45.8343 30.7601 44.7999L32.3405 44.675L32.32 43.5813L30.7355 43.4502C30.7417 42.463 30.7274 41.6539 30.8643 40.7118C30.94 40.1854 32.044 40.1035 32.4223 40.3021C33.6838 40.9596 33.1052 42.7087 33.4691 42.7108H34.3871L34.3748 39.2063L28.0633 39.1879C27.8711 39.1879 27.634 39.7716 27.7587 39.8597L28.2248 40.1833C28.4538 40.3431 28.8341 40.8244 28.8321 41.1624L28.7748 48.5092L27.9243 48.8123C27.7689 48.8676 27.7791 49.3367 27.7832 49.7115L34.3135 49.7217L34.3216 46.1681C32.3364 45.0908 34.1254 47.778 32.502 48.5112C32.0665 48.7079 30.9788 48.7611 30.8725 48.0832L30.8746 48.0811ZM3.99707 55.1678C4.09112 55.5795 4.19743 55.9892 4.36713 56.1428C4.53683 56.2964 5.1829 56.28 5.3526 56.1264C5.6879 55.8192 5.77582 54.9794 5.54274 54.4879L4.91506 55.3481L4.73516 53.56C5.03161 53.0562 5.26672 52.3127 5.0684 51.8375C4.90893 51.4565 4.19335 51.0756 3.72515 51.0735L1.26352 51.0571L1.8135 51.8477L1.75422 54.5227C1.74195 55.0654 1.55998 55.4464 1.20219 56.0363C1.77466 56.1039 2.61497 56.1407 3.23651 56.0957C2.73764 55.4341 2.4698 54.4735 2.83782 54.0987C3.00752 53.9266 3.69857 53.8754 3.75377 54.113L3.99502 55.1678H3.99707ZM7.88783 55.5222C7.82649 55.1556 7.88374 54.2564 7.91441 54.0086L8.57684 53.9144C8.6852 53.898 8.68929 53.5457 8.58093 53.5006L8.00028 53.261C7.87965 53.2118 7.76107 51.8354 8.46439 51.7904C9.38443 51.731 8.95917 53.2815 9.57866 53.1074C9.69316 52.4233 9.7136 51.8723 9.67475 51.3132L6.55069 51.2333C6.82466 51.8191 7.05979 52.2942 7.04753 52.581L6.93507 54.9815C6.91871 55.3153 6.65292 55.6942 6.25833 56.3558L9.60728 56.405C9.62364 55.7127 9.61342 55.0962 9.43759 54.6435C9.21678 54.068 9.20859 55.2457 8.64634 55.8458C8.51958 55.981 7.91849 55.7209 7.88374 55.5222H7.88783ZM12.0771 51.9399C13.083 51.7986 13.1995 52.4622 13.3324 53.0705L13.4899 53.7751C13.5164 53.8939 13.954 53.857 14.1973 53.857L14.3056 51.5446C13.2731 51.772 11.5169 50.7786 10.9689 52.6261C10.7665 53.306 10.7727 54.3281 10.836 55.09C10.9281 56.1674 11.7459 56.5422 12.5739 56.6302C13.4019 56.7183 14.1196 55.8396 14.1278 55.1699C14.1298 54.9999 13.4878 54.7684 13.4367 54.9241L13.2445 55.4996C13.1627 55.7475 12.6884 56.11 12.4267 56.0732C12.2059 56.0424 11.8297 55.5734 11.8461 55.3276L12.075 51.9379L12.0771 51.9399ZM18.7689 55.3768L18.6932 52.6916C18.6748 52.0095 17.6403 51.5364 17.0944 51.5733C16.479 51.6142 15.6182 52.0997 15.563 52.8288L15.3974 55.0921C15.3279 56.026 16.0946 56.7101 16.8572 56.788C17.7405 56.8781 18.3804 56.3415 18.7668 55.3747L18.7689 55.3768ZM22.5267 56.0363C22.6064 56.6712 23.089 57.1403 23.6205 57.0194C24.1521 56.8986 24.3464 56.0424 24.1194 55.3645C24.0887 55.2703 23.872 55.4157 23.8148 55.4976L23.4938 55.9646L23.228 54.2912C23.5612 53.7997 23.7575 53.2876 23.6982 52.8329C23.6553 52.4868 23.0971 51.8908 22.7271 51.8764L19.8627 51.7679L20.3575 52.6424L20.2961 55.5898C20.2879 55.9605 20.0569 56.2718 19.7012 56.7982L21.7477 56.8576C21.2346 56.1366 21.0567 55.1781 21.4124 54.7848C21.5617 54.621 22.3652 54.75 22.3918 54.961L22.5247 56.0342L22.5267 56.0363ZM27.5808 57.0051C28.8566 56.7081 29.2124 55.3829 29.1756 54.2851C29.151 53.5232 28.9118 52.3885 28.0797 52.1816C27.1964 51.9604 26.2927 51.9891 25.2357 52.0054L25.7673 52.878L25.663 55.7598C25.6508 56.0834 25.3277 56.5524 25.0456 57.044C25.8062 57.0993 26.8141 57.1812 27.5808 57.003V57.0051ZM32.0215 57.4004C33.1072 57.5622 33.6163 56.4562 33.5263 55.643C33.3403 53.9615 31.4123 54.4264 31.1097 53.5395C31.0361 53.3265 31.2528 52.837 31.4654 52.7653C31.6781 52.6936 32.2199 52.7899 32.3712 52.9538L33.2544 53.9246L33.3525 52.3024C32.502 52.2676 31.8212 52.2226 31.1179 52.3086C30.2632 52.4151 30.1038 53.4638 30.2387 54.1827C30.4595 55.3481 33.4302 55.6184 32.3732 56.5627C31.5779 57.2734 30.9032 56.4336 30.3123 55.5734C30.1263 56.0322 30.0997 56.9252 30.1896 57.3144C30.9175 57.255 31.3509 57.3021 32.0236 57.4004H32.0215Z" fill="#CC2211"/>
<path d="M14.3649 18.2821L10.9894 18.3026C9.97734 18.3087 9.02458 18.1817 7.92053 18.3886C7.97778 17.0389 8.57478 15.6338 9.56638 14.5216C8.39895 12.4325 8.26403 10.1549 7.68747 7.72371C7.48097 10.1037 7.09046 12.3731 5.98641 14.493C8.24154 17.7004 6.3667 16.8668 9.06753 20.6068C9.49688 21.2008 9.56639 21.3462 9.32105 22.0139C8.39692 24.5372 8.217 27.1651 7.68133 29.7683C7.27651 26.7595 6.83285 23.9371 6.12544 21.1782C6.71835 20.2299 7.14566 19.4721 7.67111 18.4459C6.76538 18.192 6.31149 18.2022 5.59999 18.3681L5.41598 6.46407C5.38735 4.61456 3.77013 3.443 2.02205 3.53107C1.90755 3.19517 1.92391 2.61143 2.07521 2.26119L19.1328 2.33902C22.7025 2.35541 25.6385 4.84395 26.3071 8.23779C27.0329 11.9184 26.4072 16.7009 22.6678 18.3906L20.8665 18.1674C22.4286 17.0225 24.3586 15.8427 25.4381 14.1304C25.3666 11.9532 24.6162 9.9173 23.7309 7.91828C24.2032 10.4724 23.6185 12.3997 22.4 14.3967C21.6169 15.6809 21.5167 17.3604 20.1448 18.4316C24.3648 20.105 24.4608 26.4523 24.0172 29.9813C23.2423 26.5547 21.9931 23.5664 19.5499 21.2294C19.9261 20.3958 20.3513 19.2468 19.9322 18.5791C19.4456 17.809 18.2025 18.4357 17.5421 18.3722C16.4626 18.2678 15.4996 18.276 14.3588 18.2821H14.3649ZM21.3572 13.7659C22.0912 11.7218 21.9788 9.692 21.163 7.85478C20.4944 6.35141 19.0653 5.26793 17.3908 5.26997L12.0382 5.27612C10.9056 5.62432 10.008 6.71804 10.0019 8.02479L9.95894 17.047C12.5535 17.0532 14.8904 17.1085 17.3847 16.9876C19.19 16.8996 20.7541 15.4413 21.3572 13.7659Z" fill="#CC2211"/>
<path d="M7.41962 43.4215L5.03979 43.5157L5.11952 40.7753C5.75332 40.5889 6.84307 40.4988 7.32149 40.808C8.18633 41.3651 8.05956 42.5326 7.41962 43.4195V43.4215Z" fill="#CC2211"/>
<path d="M2.92573 51.9399C3.06067 51.7064 3.89075 51.7699 4.0216 51.9973C4.15245 52.2246 4.14837 52.8534 3.9521 53.0275C3.75582 53.2016 3.25695 53.1995 2.95027 53.1565C2.68857 53.1197 2.74582 52.2512 2.92573 51.9399Z" fill="#CC2211"/>
<path d="M21.5024 53.8857C21.1773 53.8058 21.2284 52.7407 21.5249 52.5851C21.7089 52.4888 22.2895 52.4888 22.4408 52.6301C22.6228 52.8002 22.6678 53.2733 22.6453 53.5641C22.6248 53.814 21.9133 53.9881 21.5044 53.8857H21.5024Z" fill="#CC2211"/>
<path d="M27.9325 52.9312C28.2248 54.2605 27.9795 56.96 26.8836 56.5688C26.7282 56.5135 26.5258 56.1243 26.536 55.9421L26.7364 52.8411C26.7569 52.5134 27.8609 52.6097 27.9304 52.9312H27.9325Z" fill="#CC2211"/>
<path d="M17.5953 55.7843C17.5871 55.9277 17.1905 56.2616 17.0596 56.2677C16.8858 56.2759 16.5383 55.9175 16.5424 55.7045L16.6098 52.6793C16.6139 52.4765 16.9288 52.1386 17.0964 52.0935C17.2968 52.0423 17.7752 52.4581 17.765 52.6773L17.5932 55.7864L17.5953 55.7843Z" fill="#CC2211"/>
<path d="M20.4781 13.2067C19.9404 15.0378 18.3538 16.0885 16.5751 16.0762L11.0323 16.0393L11.0528 8.19274C11.0528 7.4513 11.7581 6.25516 12.5064 6.25107L16.9676 6.21624C18.6155 6.20395 19.9853 7.42672 20.4679 8.98949C20.8768 10.3208 20.8911 11.8037 20.4781 13.2067Z" fill="#CC2211"/>
</svg>
