<svg width="212" height="280" viewBox="0 0 212 280" fill="none" xmlns="http://www.w3.org/2000/svg">
<mask id="path-1-inside-1_76_18" fill="white">
<path d="M11.916 38.3705L3.25418 40.8045L13.8302 43.0953L15.553 43.4771L21.1521 48.8699L25.8898 51.7334L26.3684 53.7379C26.5598 54.5014 26.9905 55.1696 27.5648 55.6468L25.7941 59.0353L20.4822 61.4692L11.7246 60.6579L17.8023 64.5236L26.3205 65.8599L33.1639 63.1873L37.6623 63.7123L40.0551 67.4348L45.7977 81.4181C46.2284 82.4203 46.707 83.4225 47.2813 84.377C49.2433 87.6223 51.2054 90.8676 53.1196 94.1128C53.9332 95.4491 54.7467 96.7854 55.5124 98.1694C55.656 98.4558 55.8474 98.6944 56.0867 98.8853C56.7088 99.3148 57.6181 98.9807 58.0009 98.3603C58.7187 97.3581 58.623 95.9264 58.5273 94.7332C57.8095 86.3814 58.0009 77.457 62.26 70.2028C62.8343 69.2006 63.5521 68.1507 63.6 67.0053C63.6957 65.0008 61.2072 64.3327 59.9151 63.2828C57.0916 60.992 54.316 58.7012 51.4925 56.4104L45.4149 46.0542L43.405 37.0343L43.74 30.7346C43.7878 29.637 43.5007 28.587 42.9264 27.6802L39.3851 22.0487L33.3074 16.0832L35.6524 24.9599L35.4131 33.5026L34.121 38.466L30.1968 32.6436L23.1621 26.8212L11.1503 24.9599L17.228 29.2074L21.6786 36.1275L25.4591 41.8544L18.5679 37.941L11.8682 38.5137L11.916 38.3705Z"/>
<path d="M198.888 81.9908C200.706 80.5591 203.051 79.8909 205.348 80.75C207.549 81.5613 209.799 82.4203 212 83.2316C210.851 79.4137 210.229 74.7844 208.124 71.3482C206.257 68.2461 202.716 66.2894 199.079 65.8122C195.298 65.3349 192.188 66.528 188.694 67.578C187.546 63.9509 190.369 59.608 191.422 56.2195C192.906 51.5425 193.576 46.5792 193.384 41.7113C193.336 39.7068 193.097 37.6547 192.427 35.7457C190.944 31.4028 187.163 28.062 182.808 26.5826C179.841 25.5804 175.773 24.5781 171.801 23.6237C175.343 27.2984 180.798 31.2119 181.277 36.6047C181.516 39.2296 180.942 41.8544 180.367 44.4316C179.554 47.9632 178.74 51.4948 177.257 54.8355C173.189 64.1895 165.197 71.205 163.187 81.4658C161.177 91.5357 162.996 102.608 167.016 111.962C169.696 118.214 173.572 123.893 177.065 129.715C180.559 135.538 183.861 141.694 185.105 148.328C187.163 159.018 181.229 177.631 166.585 172.286L164.958 171.713C161.369 170.377 158.45 167.656 157.014 164.125L147.251 140.501C146.055 137.59 144.38 134.822 142.322 132.388L134.953 123.75C128.971 116.734 129.401 102.703 132.895 94.6378C138.255 82.2294 156.44 73.4481 154.621 58.558L153.042 46.0065L157.493 48.0109C159.359 48.8699 161.465 49.2517 163.522 49.1563L168.834 48.8699L159.598 41.7113C158.163 40.6136 156.918 39.2296 156.009 37.7024L151.08 29.6847L150.793 27.3462C152.085 26.9644 153.281 26.2485 154.238 25.1986L158.45 20.5216L155.674 20.9511C152.516 21.476 149.261 20.617 146.773 18.6126L145.146 17.2763C143.279 15.7968 141.174 14.6992 138.877 14.031L136.101 13.2674L135.718 7.20641L138.781 0L127.822 3.24527L122.845 8.25635L104.804 10.6426L96.2853 14.3651L79.2009 17.6104L78.8181 20.4261C78.4352 23.1941 79.4402 25.9622 81.498 27.9189L81.9287 28.3007H82.3115L84.2257 32.2141L86.9056 33.4072L86.5228 31.8323C86.2835 30.8301 86.3792 29.7801 86.8578 28.8734L87.3842 27.8234L94.8018 27.1553L95.4239 29.6847L97.9603 32.2618V31.4028C97.8167 30.3051 98.1038 29.1597 98.726 28.2052L99.5874 26.8689C102.076 26.8689 104.516 27.0598 106.957 27.4893V30.3528L109.254 33.4549V31.1164C109.254 30.1619 109.446 29.2074 109.876 28.3484C109.924 28.2052 110.068 28.1575 110.211 28.2052C113.322 29.0165 115.954 31.021 117.437 33.789L118.442 35.6502C117.294 36.7479 115.81 37.3683 114.231 37.4638L112.221 33.8367L111.503 35.6025L111.36 37.0343L107.244 36.1275C106.766 36.032 106.239 35.8411 105.809 35.5548C104.325 34.6003 103.607 32.9299 103.799 31.3073L104.038 29.6369L101.406 32.2141L100.688 34.6958C98.9174 34.4094 97.0989 34.314 95.3282 34.4094C94.6104 34.4094 93.8925 34.1231 93.5097 33.5026C93.0311 32.8345 92.744 32.0709 92.6004 31.3073L92.2655 29.3506L90.3991 32.4527V35.173L84.0822 36.557C82.9815 36.7956 82.3115 37.941 82.6465 38.991L83.6515 42.1885C84.1779 43.7634 85.2785 45.0997 86.7621 45.8633L91.8826 48.5359C91.8826 48.5359 91.8826 43.143 94.9932 42.1885C98.1038 41.2817 113.992 41.1863 119.017 49.1086C99.8266 51.1607 77.191 51.9243 68.7684 72.4936C65.9449 79.4137 62.5472 93.5401 67.0935 100.222C68.1463 101.749 67.572 103.801 65.8971 104.612L49.8176 112.296C46.707 113.775 43.1657 114.348 39.7201 113.919L30.149 112.725L24.9327 101.319L9.85824 99.458L17.4673 105.567L20.7214 114.587L9.85824 110.053L0 115.637L11.2939 118.023L19.2858 123.082L6.17336 126.566L3.06275 137.065L14.7874 133.342C17.2758 132.579 19.9079 132.34 22.4442 132.722L28.9526 133.676L28.8569 137.065C28.809 139.069 27.9476 140.978 26.4641 142.41L21.2 147.421L30.9625 145.56C34.4081 144.892 37.3752 142.84 39.1458 139.881L44.4578 131.004L66.1363 131.815L70.0126 134.44C72.3097 136.015 75.0375 136.826 77.8131 136.826H83.5079L77.2867 129.572C77.2867 129.572 77.4781 129.477 77.526 129.429L84.7043 125.468L87.8149 129.906C91.9783 135.872 97.4817 140.835 103.894 144.462L112.795 149.473C107.866 156.393 100.688 162.884 97.7689 171.045C94.9932 178.776 94.2275 191.28 97.051 199.155C100.066 207.506 109.924 214.904 119.112 214.904H147.634L131.316 224.974C126.578 227.885 122.558 231.703 119.4 236.189C118.012 238.146 116.145 239.72 113.944 240.723L110.977 242.107C109.924 242.584 109.063 243.395 108.488 244.35L106.144 248.168C103.464 248.168 100.832 249.027 98.6781 250.554L93.1747 254.467L90.4948 260.624L99.2524 257.331L107.292 256.615L106.766 257.474C105.713 259.24 105.234 261.292 105.33 263.344L106.144 277.948L111.408 265.444C112.317 263.249 113.8 261.34 115.715 259.908L120.74 256.09L119.782 261.435C119.208 264.68 119.926 267.973 121.744 270.741L127.966 280V268.26C127.966 265.158 128.54 262.056 129.688 259.144L131.698 253.99L135.527 252.654L137.393 254.372C138.925 255.804 139.834 257.808 139.834 259.908V268.832L146.247 262.056L147.299 255.326C147.539 253.704 147.299 252.033 146.581 250.602L142.466 242.298C142.849 243.109 145.577 238.384 150.219 235.568C153.425 233.612 158.976 233.469 159.455 233.039C162.039 230.653 165.245 227.408 167.973 223.78L170.509 225.689C171.658 226.548 172.471 227.742 172.854 229.126L174.242 234.089L175.965 227.932C176.156 227.264 176.252 226.548 176.204 225.88L176.061 221.633C176.061 220.535 175.726 219.485 175.199 218.531L173.285 215.095L178.405 214.713C179.41 214.617 180.415 214.331 181.277 213.806L187.307 210.227L192.81 204.07L184.674 205.693C183.335 205.979 181.899 205.931 180.607 205.55L177.305 204.643C172.615 203.354 171.993 197.675 167.494 196.052C166.059 195.528 164.527 195.528 163.044 195.337C159.12 194.859 155.483 193.189 151.558 192.664C147.251 192.091 142.849 192.855 138.494 192.616C133.469 192.33 135.096 186.317 135.335 182.833C135.67 178.013 136.58 173.097 139.403 169.04C141.748 165.747 144.093 162.454 146.438 159.161C145.242 160.879 148.496 167.8 149.261 169.47C150.936 173.002 153.233 176.247 156.057 179.015C160.699 183.596 166.537 186.078 172.854 187.653C180.033 189.419 187.259 185.124 192.858 180.208C200.467 173.527 202.477 165.652 203.53 156.107C204.678 145.655 204.343 134.774 201.328 124.657C198.218 114.109 194.485 104.517 194.628 93.397C194.628 90.7721 194.772 88.0995 195.777 85.6656C196.399 84.1861 197.404 82.8021 198.744 81.7522L198.888 81.9908Z"/>
<path d="M92.1698 232.562L95.3282 227.551C97.0032 224.878 95.0889 219.724 94.5147 216.86C92.5526 207.268 88.0063 198.534 83.9865 189.657C83.4122 188.369 83.1729 186.937 83.3643 185.553L83.6993 182.976C83.8429 181.831 84.7521 180.924 85.9007 180.733L87.8149 180.447C89.4898 180.16 90.8777 178.919 91.2126 177.249L92.9354 169.231C93.749 165.509 95.5196 162.073 98.1038 159.209L101.167 155.821C102.219 152.719 100.927 149.282 98.1038 147.612L92.1219 144.033C91.0212 143.365 89.6813 143.078 88.3892 143.269L78.6745 144.701C76.4253 145.035 74.2718 145.703 72.214 146.658L54.8903 154.818L46.4677 159.066C44.1228 160.259 42.3521 162.359 41.6343 164.888L41.1079 166.702C40.7251 167.943 41.1079 169.279 42.065 170.186L52.4018 179.778C54.651 181.878 56.5174 184.36 57.9052 187.08L63.9828 198.964C64.605 200.157 64.1264 201.636 62.8822 202.257C61.3508 202.973 59.5323 202.782 58.2402 201.732L46.1327 192.187L37.9973 189.18L34.791 183.501L30.484 179.492L20.6736 176.342L27.0384 183.787L28.7612 189.085L29.3833 193.237L23.8321 187.987L16.8451 187.605L8.27901 189.944L16.1273 192.33L23.4014 197.627V201.589H16.9409L13.1124 203.068L8.32686 208.509L16.7016 207.172L24.7892 208.509L26.847 210.131C28.1391 211.133 29.7661 211.563 31.3932 211.372L33.0682 211.133L34.3603 212.47L30.5318 218.101L21.8221 222.11H32.3503L40.4858 218.913L44.6971 214.856L49.8655 215.333L67.8113 221.728L72.9797 222.54L72.1183 225.833L68.6248 230.176L62.2122 234.948L73.4582 232.944L78.7223 230.319L81.2108 228.935L78.7223 232.132V238.766L82.5508 247.547V241.439L83.0294 239.864C83.4601 238.336 84.6086 237.096 86.0921 236.427L89.2506 235.091C90.4948 234.566 91.4998 233.707 92.2176 232.609L92.1698 232.562Z"/>
</mask>
<path d="M11.916 38.3705L3.25418 40.8045L13.8302 43.0953L15.553 43.4771L21.1521 48.8699L25.8898 51.7334L26.3684 53.7379C26.5598 54.5014 26.9905 55.1696 27.5648 55.6468L25.7941 59.0353L20.4822 61.4692L11.7246 60.6579L17.8023 64.5236L26.3205 65.8599L33.1639 63.1873L37.6623 63.7123L40.0551 67.4348L45.7977 81.4181C46.2284 82.4203 46.707 83.4225 47.2813 84.377C49.2433 87.6223 51.2054 90.8676 53.1196 94.1128C53.9332 95.4491 54.7467 96.7854 55.5124 98.1694C55.656 98.4558 55.8474 98.6944 56.0867 98.8853C56.7088 99.3148 57.6181 98.9807 58.0009 98.3603C58.7187 97.3581 58.623 95.9264 58.5273 94.7332C57.8095 86.3814 58.0009 77.457 62.26 70.2028C62.8343 69.2006 63.5521 68.1507 63.6 67.0053C63.6957 65.0008 61.2072 64.3327 59.9151 63.2828C57.0916 60.992 54.316 58.7012 51.4925 56.4104L45.4149 46.0542L43.405 37.0343L43.74 30.7346C43.7878 29.637 43.5007 28.587 42.9264 27.6802L39.3851 22.0487L33.3074 16.0832L35.6524 24.9599L35.4131 33.5026L34.121 38.466L30.1968 32.6436L23.1621 26.8212L11.1503 24.9599L17.228 29.2074L21.6786 36.1275L25.4591 41.8544L18.5679 37.941L11.8682 38.5137L11.916 38.3705Z" stroke="#CC2211" stroke-width="4" mask="url(#path-1-inside-1_76_18)"/>
<path d="M198.888 81.9908C200.706 80.5591 203.051 79.8909 205.348 80.75C207.549 81.5613 209.799 82.4203 212 83.2316C210.851 79.4137 210.229 74.7844 208.124 71.3482C206.257 68.2461 202.716 66.2894 199.079 65.8122C195.298 65.3349 192.188 66.528 188.694 67.578C187.546 63.9509 190.369 59.608 191.422 56.2195C192.906 51.5425 193.576 46.5792 193.384 41.7113C193.336 39.7068 193.097 37.6547 192.427 35.7457C190.944 31.4028 187.163 28.062 182.808 26.5826C179.841 25.5804 175.773 24.5781 171.801 23.6237C175.343 27.2984 180.798 31.2119 181.277 36.6047C181.516 39.2296 180.942 41.8544 180.367 44.4316C179.554 47.9632 178.74 51.4948 177.257 54.8355C173.189 64.1895 165.197 71.205 163.187 81.4658C161.177 91.5357 162.996 102.608 167.016 111.962C169.696 118.214 173.572 123.893 177.065 129.715C180.559 135.538 183.861 141.694 185.105 148.328C187.163 159.018 181.229 177.631 166.585 172.286L164.958 171.713C161.369 170.377 158.45 167.656 157.014 164.125L147.251 140.501C146.055 137.59 144.38 134.822 142.322 132.388L134.953 123.75C128.971 116.734 129.401 102.703 132.895 94.6378C138.255 82.2294 156.44 73.4481 154.621 58.558L153.042 46.0065L157.493 48.0109C159.359 48.8699 161.465 49.2517 163.522 49.1563L168.834 48.8699L159.598 41.7113C158.163 40.6136 156.918 39.2296 156.009 37.7024L151.08 29.6847L150.793 27.3462C152.085 26.9644 153.281 26.2485 154.238 25.1986L158.45 20.5216L155.674 20.9511C152.516 21.476 149.261 20.617 146.773 18.6126L145.146 17.2763C143.279 15.7968 141.174 14.6992 138.877 14.031L136.101 13.2674L135.718 7.20641L138.781 0L127.822 3.24527L122.845 8.25635L104.804 10.6426L96.2853 14.3651L79.2009 17.6104L78.8181 20.4261C78.4352 23.1941 79.4402 25.9622 81.498 27.9189L81.9287 28.3007H82.3115L84.2257 32.2141L86.9056 33.4072L86.5228 31.8323C86.2835 30.8301 86.3792 29.7801 86.8578 28.8734L87.3842 27.8234L94.8018 27.1553L95.4239 29.6847L97.9603 32.2618V31.4028C97.8167 30.3051 98.1038 29.1597 98.726 28.2052L99.5874 26.8689C102.076 26.8689 104.516 27.0598 106.957 27.4893V30.3528L109.254 33.4549V31.1164C109.254 30.1619 109.446 29.2074 109.876 28.3484C109.924 28.2052 110.068 28.1575 110.211 28.2052C113.322 29.0165 115.954 31.021 117.437 33.789L118.442 35.6502C117.294 36.7479 115.81 37.3683 114.231 37.4638L112.221 33.8367L111.503 35.6025L111.36 37.0343L107.244 36.1275C106.766 36.032 106.239 35.8411 105.809 35.5548C104.325 34.6003 103.607 32.9299 103.799 31.3073L104.038 29.6369L101.406 32.2141L100.688 34.6958C98.9174 34.4094 97.0989 34.314 95.3282 34.4094C94.6104 34.4094 93.8925 34.1231 93.5097 33.5026C93.0311 32.8345 92.744 32.0709 92.6004 31.3073L92.2655 29.3506L90.3991 32.4527V35.173L84.0822 36.557C82.9815 36.7956 82.3115 37.941 82.6465 38.991L83.6515 42.1885C84.1779 43.7634 85.2785 45.0997 86.7621 45.8633L91.8826 48.5359C91.8826 48.5359 91.8826 43.143 94.9932 42.1885C98.1038 41.2817 113.992 41.1863 119.017 49.1086C99.8266 51.1607 77.191 51.9243 68.7684 72.4936C65.9449 79.4137 62.5472 93.5401 67.0935 100.222C68.1463 101.749 67.572 103.801 65.8971 104.612L49.8176 112.296C46.707 113.775 43.1657 114.348 39.7201 113.919L30.149 112.725L24.9327 101.319L9.85824 99.458L17.4673 105.567L20.7214 114.587L9.85824 110.053L0 115.637L11.2939 118.023L19.2858 123.082L6.17336 126.566L3.06275 137.065L14.7874 133.342C17.2758 132.579 19.9079 132.34 22.4442 132.722L28.9526 133.676L28.8569 137.065C28.809 139.069 27.9476 140.978 26.4641 142.41L21.2 147.421L30.9625 145.56C34.4081 144.892 37.3752 142.84 39.1458 139.881L44.4578 131.004L66.1363 131.815L70.0126 134.44C72.3097 136.015 75.0375 136.826 77.8131 136.826H83.5079L77.2867 129.572C77.2867 129.572 77.4781 129.477 77.526 129.429L84.7043 125.468L87.8149 129.906C91.9783 135.872 97.4817 140.835 103.894 144.462L112.795 149.473C107.866 156.393 100.688 162.884 97.7689 171.045C94.9932 178.776 94.2275 191.28 97.051 199.155C100.066 207.506 109.924 214.904 119.112 214.904H147.634L131.316 224.974C126.578 227.885 122.558 231.703 119.4 236.189C118.012 238.146 116.145 239.72 113.944 240.723L110.977 242.107C109.924 242.584 109.063 243.395 108.488 244.35L106.144 248.168C103.464 248.168 100.832 249.027 98.6781 250.554L93.1747 254.467L90.4948 260.624L99.2524 257.331L107.292 256.615L106.766 257.474C105.713 259.24 105.234 261.292 105.33 263.344L106.144 277.948L111.408 265.444C112.317 263.249 113.8 261.34 115.715 259.908L120.74 256.09L119.782 261.435C119.208 264.68 119.926 267.973 121.744 270.741L127.966 280V268.26C127.966 265.158 128.54 262.056 129.688 259.144L131.698 253.99L135.527 252.654L137.393 254.372C138.925 255.804 139.834 257.808 139.834 259.908V268.832L146.247 262.056L147.299 255.326C147.539 253.704 147.299 252.033 146.581 250.602L142.466 242.298C142.849 243.109 145.577 238.384 150.219 235.568C153.425 233.612 158.976 233.469 159.455 233.039C162.039 230.653 165.245 227.408 167.973 223.78L170.509 225.689C171.658 226.548 172.471 227.742 172.854 229.126L174.242 234.089L175.965 227.932C176.156 227.264 176.252 226.548 176.204 225.88L176.061 221.633C176.061 220.535 175.726 219.485 175.199 218.531L173.285 215.095L178.405 214.713C179.41 214.617 180.415 214.331 181.277 213.806L187.307 210.227L192.81 204.07L184.674 205.693C183.335 205.979 181.899 205.931 180.607 205.55L177.305 204.643C172.615 203.354 171.993 197.675 167.494 196.052C166.059 195.528 164.527 195.528 163.044 195.337C159.12 194.859 155.483 193.189 151.558 192.664C147.251 192.091 142.849 192.855 138.494 192.616C133.469 192.33 135.096 186.317 135.335 182.833C135.67 178.013 136.58 173.097 139.403 169.04C141.748 165.747 144.093 162.454 146.438 159.161C145.242 160.879 148.496 167.8 149.261 169.47C150.936 173.002 153.233 176.247 156.057 179.015C160.699 183.596 166.537 186.078 172.854 187.653C180.033 189.419 187.259 185.124 192.858 180.208C200.467 173.527 202.477 165.652 203.53 156.107C204.678 145.655 204.343 134.774 201.328 124.657C198.218 114.109 194.485 104.517 194.628 93.397C194.628 90.7721 194.772 88.0995 195.777 85.6656C196.399 84.1861 197.404 82.8021 198.744 81.7522L198.888 81.9908Z" stroke="#CC2211" stroke-width="4" mask="url(#path-1-inside-1_76_18)"/>
<path d="M92.1698 232.562L95.3282 227.551C97.0032 224.878 95.0889 219.724 94.5147 216.86C92.5526 207.268 88.0063 198.534 83.9865 189.657C83.4122 188.369 83.1729 186.937 83.3643 185.553L83.6993 182.976C83.8429 181.831 84.7521 180.924 85.9007 180.733L87.8149 180.447C89.4898 180.16 90.8777 178.919 91.2126 177.249L92.9354 169.231C93.749 165.509 95.5196 162.073 98.1038 159.209L101.167 155.821C102.219 152.719 100.927 149.282 98.1038 147.612L92.1219 144.033C91.0212 143.365 89.6813 143.078 88.3892 143.269L78.6745 144.701C76.4253 145.035 74.2718 145.703 72.214 146.658L54.8903 154.818L46.4677 159.066C44.1228 160.259 42.3521 162.359 41.6343 164.888L41.1079 166.702C40.7251 167.943 41.1079 169.279 42.065 170.186L52.4018 179.778C54.651 181.878 56.5174 184.36 57.9052 187.08L63.9828 198.964C64.605 200.157 64.1264 201.636 62.8822 202.257C61.3508 202.973 59.5323 202.782 58.2402 201.732L46.1327 192.187L37.9973 189.18L34.791 183.501L30.484 179.492L20.6736 176.342L27.0384 183.787L28.7612 189.085L29.3833 193.237L23.8321 187.987L16.8451 187.605L8.27901 189.944L16.1273 192.33L23.4014 197.627V201.589H16.9409L13.1124 203.068L8.32686 208.509L16.7016 207.172L24.7892 208.509L26.847 210.131C28.1391 211.133 29.7661 211.563 31.3932 211.372L33.0682 211.133L34.3603 212.47L30.5318 218.101L21.8221 222.11H32.3503L40.4858 218.913L44.6971 214.856L49.8655 215.333L67.8113 221.728L72.9797 222.54L72.1183 225.833L68.6248 230.176L62.2122 234.948L73.4582 232.944L78.7223 230.319L81.2108 228.935L78.7223 232.132V238.766L82.5508 247.547V241.439L83.0294 239.864C83.4601 238.336 84.6086 237.096 86.0921 236.427L89.2506 235.091C90.4948 234.566 91.4998 233.707 92.2176 232.609L92.1698 232.562Z" stroke="#CC2211" stroke-width="4" mask="url(#path-1-inside-1_76_18)"/>
</svg>
