<?xml version="1.0" encoding="UTF-8"?>
<svg id="icon" xmlns="http://www.w3.org/2000/svg" version="1.1" viewBox="0 0 89.67 112.96">
  <!-- Generator: Adobe Illustrator 30.2.1, SVG Export Plug-In . SVG Version: 2.1.1 Build 1)  -->
  <defs>
    <style>
      .st0 {
        fill: #c21;
      }
    </style>
  </defs>
  <g id="h_icon">
    <polygon class="st0" points="21.15 19.79 21.42 19.64 21.4 19.64 34.45 12.09 19.36 0 0 11.15 0 19.64 0 101.81 19.39 112.96 34.48 100.85 21.15 93.17 21.15 19.79"/>
    <polygon class="st0" points="76.35 93.17 76.35 62.52 76.35 53.88 76.35 19.76 76.57 19.64 76.62 19.64 89.64 12.09 74.58 0 55.19 11.15 55.19 19.64 55.22 19.64 55.19 45.16 39.82 51.17 55.19 73.86 55.22 101.81 74.61 112.96 89.67 100.85 76.35 93.17"/>
  </g>
</svg>