<?xml version="1.0" encoding="UTF-8"?>
<svg id="Layer_1" data-name="Layer 1" xmlns="http://www.w3.org/2000/svg" viewBox="0 0 720 720">
  <defs>
    <style>
      .cls-1 {
        fill: #04e;
      }

      .cls-2 {
        fill: #e9effd;
      }
    </style>
  </defs>
  <g>
    <g>
      <path class="cls-1" d="M74.53,446.01l29.12,16.81c1.43.83,2.93,1.49,4.46,1.99v-69.94h-14.97c-.05,19.43-7.04,37.26-18.61,51.14Z"/>
      <path class="cls-1" d="M123.11,464.81c1.53-.5,3.02-1.16,4.45-1.99l29.12-16.81c-11.57-13.88-18.56-31.71-18.61-51.14h-14.96v69.94Z"/>
      <path class="cls-1" d="M200.68,294.76l-73.12-42.22c-7.4-4.27-16.51-4.27-23.91,0l-73.12,42.22c-7.4,4.27-11.95,12.16-11.95,20.7v84.44c0,8.54,4.55,16.43,11.95,20.7l30.78,17.78c10.41-11.54,16.78-26.79,16.83-43.51h-38.26v-29.39h12.02c23.08,0,25.78-67.33,25.78-67.33h-5.05v-10.54h85.96v10.54h-5.05s2.7,67.33,25.78,67.33h12.02v29.39h-38.27c.05,16.72,6.41,31.97,16.82,43.51h.01l30.78-17.78c7.4-4.27,11.96-12.16,11.96-20.7v-84.44c0-8.54-4.56-16.43-11.96-20.7Z"/>
      <polygon class="cls-1" points="123.11 337.45 133.4 337.45 115.61 306.63 97.81 337.45 108.11 337.45 108.11 394.66 108.11 394.87 123.11 394.87 123.11 394.66 123.11 337.45"/>
      <polygon class="cls-1" points="153.07 367.84 163.36 367.84 145.57 337.02 127.78 367.84 138.07 367.84 138.07 394.66 138.07 394.87 153.07 394.87 153.07 394.66 153.07 367.84"/>
      <polygon class="cls-1" points="93.15 394.67 93.15 367.64 103.44 367.64 85.65 336.82 67.85 367.64 78.15 367.64 78.15 394.66 78.14 394.66 78.14 394.87 93.14 394.87 93.14 394.67 93.15 394.67"/>
    </g>
    <g>
      <path class="cls-2" d="M257.31,300.24h23.7c8.82,0,15,5.16,15,12.54,0,4.44-2.76,8.16-6.9,10.32,5.16,1.98,8.7,6.18,8.7,11.58,0,7.98-6.42,13.56-15.6,13.56h-24.9v-48ZM279.81,318.54c2.4,0,4.08-1.68,4.08-4.14s-1.68-4.08-4.08-4.08h-10.8v8.22h10.8ZM280.59,338.16c2.94,0,4.98-2.04,4.98-4.98s-2.04-5.04-4.98-5.04h-11.58v10.02h11.58Z"/>
      <path class="cls-2" d="M319.41,300.24h11.64l18.66,48h-11.94l-3.48-9.24h-18l-3.48,9.24h-12l18.6-48ZM330.69,329.28l-5.4-14.28-5.4,14.28h10.8Z"/>
      <path class="cls-2" d="M355.11,300.24h23.1c9.18,0,15.6,6.24,15.6,15.18,0,6.72-3.9,12.18-9.84,14.34l12.06,18.48h-13.2l-11.04-17.34h-4.98v17.34h-11.7v-48ZM377.49,320.4c2.76,0,4.62-1.98,4.62-4.8s-1.86-4.86-4.62-4.86h-10.68v9.66h10.68Z"/>
      <path class="cls-2" d="M401.67,300.24h35.58v10.2h-23.88v8.04h20.28v10.26h-20.28v9.24h23.88v10.26h-35.58v-48Z"/>
      <path class="cls-2" d="M466.64,300.24h16.38l12.78,32.52,12.78-32.52h16.44v48h-11.58v-30.18l-12,30.18h-11.4l-11.88-30v30h-11.52v-48Z"/>
      <path class="cls-2" d="M534.62,300.24h35.58v10.2h-23.88v8.04h20.28v10.26h-20.28v9.24h23.88v10.26h-35.58v-48Z"/>
      <path class="cls-2" d="M589.04,310.74h-13.74v-10.5h38.94v10.5h-13.56v37.5h-11.64v-37.5Z"/>
      <path class="cls-2" d="M629.84,300.24h11.64l18.66,48h-11.94l-3.48-9.24h-18l-3.48,9.24h-12l18.6-48ZM641.12,329.28l-5.4-14.28-5.4,14.28h10.8Z"/>
      <path class="cls-2" d="M665.54,300.24h11.7v37.5h24.18v10.5h-35.88v-48Z"/>
      <path class="cls-2" d="M254.91,397.46h12c0,3.48,2.22,6.18,6.54,6.18,3.06,0,5.28-1.38,5.28-4.02,0-3.3-3.66-4.62-8.34-6.72-7.44-3.24-14.46-6.54-14.46-14.82s7.38-13.5,16.62-13.5c9.9,0,16.26,6.3,16.26,15.54h-11.4c0-3.12-1.92-5.04-4.86-5.04-2.7,0-4.62,1.62-4.62,3.66,0,2.64,3.06,3.48,9.72,6.12,7.08,2.76,13.26,6.12,13.26,14.46,0,9.18-7.2,14.58-17.22,14.58-11.16,0-18.78-6.78-18.78-16.44Z"/>
      <path class="cls-2" d="M307.29,375.74h-13.74v-10.5h38.94v10.5h-13.56v37.5h-11.64v-37.5Z"/>
      <path class="cls-2" d="M348.09,365.24h11.64l18.66,48h-11.94l-3.48-9.24h-18l-3.48,9.24h-12l18.6-48ZM359.37,394.28l-5.4-14.28-5.4,14.28h10.8Z"/>
      <path class="cls-2" d="M383.79,365.24h12.9l16.5,29.82v-29.82h11.64v48h-12.9l-16.44-29.82v29.82h-11.7v-48Z"/>
      <path class="cls-2" d="M434.43,365.24h19.56c14.58,0,24.78,10.02,24.78,24.18s-10.2,23.82-24.78,23.82h-19.56v-48ZM453.81,402.2c7.68,0,13.02-5.28,13.02-12.78s-5.34-13.14-13.02-13.14h-7.68v25.92h7.68Z"/>
      <path class="cls-2" d="M497.61,365.24h11.64l18.66,48h-11.94l-3.48-9.24h-18l-3.48,9.24h-12l18.6-48ZM508.89,394.28l-5.4-14.28-5.4,14.28h10.8Z"/>
      <path class="cls-2" d="M533.31,365.24h23.1c9.18,0,15.6,6.24,15.6,15.18,0,6.72-3.9,12.18-9.84,14.34l12.06,18.48h-13.2l-11.04-17.34h-4.98v17.34h-11.7v-48ZM555.69,385.4c2.76,0,4.62-1.98,4.62-4.8s-1.86-4.86-4.62-4.86h-10.68v9.66h10.68Z"/>
      <path class="cls-2" d="M579.87,365.24h19.56c14.58,0,24.78,10.02,24.78,24.18s-10.2,23.82-24.78,23.82h-19.56v-48ZM599.24,402.2c7.68,0,13.02-5.28,13.02-12.78s-5.34-13.14-13.02-13.14h-7.68v25.92h7.68Z"/>
    </g>
  </g>
  <g>
    <path class="cls-2" d="M258.93,462.31v-25.2h3.6v10.94l10.08-10.94h4.5l-9.36,10.01,9.54,15.19h-4.39l-7.7-12.38-2.66,2.84v9.54h-3.6Z"/>
    <path class="cls-2" d="M282.65,440.75c-.7,0-1.27-.22-1.71-.65-.44-.43-.67-.98-.67-1.66s.22-1.18.67-1.6c.44-.42,1.01-.63,1.71-.63s1.24.21,1.69.63.68.95.68,1.6-.23,1.22-.68,1.66-1.02.65-1.69.65ZM280.82,462.31v-18.14h3.6v18.14h-3.6Z"/>
    <path class="cls-2" d="M297.02,462.31c-1.13,0-2.11-.18-2.95-.54-.84-.36-1.49-.96-1.94-1.8s-.68-1.98-.68-3.42v-9.32h-3.13v-3.06h3.13l.43-4.54h3.17v4.54h5.15v3.06h-5.15v9.36c0,1.03.22,1.73.65,2.11.43.37,1.17.56,2.23.56h2.09v3.06h-2.99Z"/>
    <path class="cls-2" d="M312.03,462.75c-1.75,0-3.31-.4-4.68-1.21-1.37-.8-2.44-1.91-3.22-3.33-.78-1.42-1.17-3.06-1.17-4.93s.39-3.56,1.17-4.99c.78-1.43,1.85-2.54,3.22-3.35,1.37-.8,2.93-1.21,4.68-1.21,2.21,0,4.06.58,5.54,1.73,1.49,1.15,2.44,2.71,2.84,4.68h-3.74c-.24-1.06-.79-1.87-1.64-2.45s-1.87-.86-3.04-.86c-.96,0-1.85.25-2.66.74-.82.49-1.47,1.21-1.96,2.16s-.74,2.12-.74,3.51c0,1.03.14,1.95.43,2.75.29.8.68,1.48,1.17,2.03.49.55,1.06.97,1.71,1.24.65.28,1.33.41,2.05.41.79,0,1.51-.13,2.14-.38.63-.25,1.17-.63,1.62-1.13s.75-1.1.92-1.8h3.74c-.41,1.92-1.36,3.46-2.84,4.63-1.49,1.17-3.34,1.75-5.54,1.75Z"/>
    <path class="cls-2" d="M324.63,462.31v-25.92h3.6v10.73c.6-1.06,1.43-1.88,2.5-2.48,1.07-.6,2.25-.9,3.55-.9,1.44,0,2.68.29,3.71.88,1.03.59,1.82,1.46,2.38,2.63.55,1.17.83,2.62.83,4.37v10.69h-3.56v-10.3c0-1.7-.36-2.99-1.08-3.87-.72-.88-1.79-1.31-3.2-1.31-.96,0-1.82.23-2.59.68-.77.46-1.38,1.12-1.84,2-.46.88-.68,1.94-.68,3.19v9.61h-3.6Z"/>
    <path class="cls-2" d="M354,462.75c-1.73,0-3.26-.4-4.61-1.19s-2.39-1.9-3.15-3.31c-.76-1.42-1.13-3.06-1.13-4.93s.38-3.59,1.13-5.02c.76-1.43,1.81-2.54,3.15-3.35,1.34-.8,2.9-1.21,4.68-1.21s3.3.4,4.57,1.19,2.26,1.84,2.95,3.15c.7,1.31,1.04,2.75,1.04,4.34,0,.24,0,.5-.02.77-.01.28-.03.58-.05.92h-14.83v-2.56h11.3c-.07-1.51-.58-2.69-1.51-3.55-.94-.85-2.1-1.28-3.49-1.28-.98,0-1.88.22-2.7.67-.82.44-1.47,1.09-1.96,1.94-.49.85-.74,1.93-.74,3.22v1.01c0,1.34.25,2.48.74,3.4.49.92,1.15,1.62,1.96,2.09.82.47,1.7.7,2.66.7,1.15,0,2.1-.25,2.84-.76.74-.5,1.3-1.19,1.66-2.05h3.6c-.31,1.1-.84,2.09-1.58,2.97s-1.66,1.57-2.75,2.07c-1.09.5-2.35.76-3.76.76Z"/>
    <path class="cls-2" d="M366.64,462.31v-18.14h3.24l.22,3.1c.58-1.08,1.39-1.94,2.45-2.57,1.06-.64,2.27-.95,3.64-.95,1.44,0,2.68.29,3.71.86,1.03.58,1.84,1.45,2.41,2.61.58,1.16.86,2.62.86,4.37v10.73h-3.6v-10.37c0-1.68-.37-2.95-1.12-3.82-.74-.86-1.82-1.3-3.24-1.3-.94,0-1.78.22-2.52.67-.74.45-1.34,1.1-1.78,1.96-.44.86-.67,1.92-.67,3.17v9.68h-3.6Z"/>
    <path class="cls-2" d="M397.17,462.31v-25.2h15.91v2.95h-12.31v8.06h11.23v2.88h-11.23v8.35h12.31v2.95h-15.91Z"/>
    <path class="cls-2" d="M415.81,462.31l6.26-9.07-6.26-9.07h3.89l4.75,7.06,4.79-7.06h3.85l-6.26,9.07,6.26,9.07h-3.85l-4.79-7.09-4.75,7.09h-3.89Z"/>
    <path class="cls-2" d="M436.26,462.31v-25.92h3.6v10.73c.6-1.06,1.43-1.88,2.5-2.48,1.07-.6,2.25-.9,3.55-.9,1.44,0,2.68.29,3.71.88,1.03.59,1.82,1.46,2.38,2.63.55,1.17.83,2.62.83,4.37v10.69h-3.56v-10.3c0-1.7-.36-2.99-1.08-3.87-.72-.88-1.79-1.31-3.2-1.31-.96,0-1.82.23-2.59.68-.77.46-1.38,1.12-1.84,2-.46.88-.68,1.94-.68,3.19v9.61h-3.6Z"/>
    <path class="cls-2" d="M463.44,462.75c-1.49,0-2.72-.25-3.71-.76-.98-.5-1.72-1.18-2.2-2.03-.48-.85-.72-1.77-.72-2.75,0-1.2.31-2.23.94-3.08.62-.85,1.51-1.51,2.66-1.96,1.15-.46,2.53-.68,4.14-.68h4.72c0-1.06-.16-1.93-.47-2.63-.31-.7-.77-1.22-1.39-1.57-.61-.35-1.39-.52-2.32-.52-1.08,0-2,.26-2.77.77-.77.52-1.25,1.28-1.44,2.29h-3.6c.14-1.27.58-2.36,1.31-3.26.73-.9,1.67-1.6,2.83-2.09,1.15-.49,2.38-.74,3.67-.74,1.7,0,3.13.3,4.28.9,1.15.6,2.02,1.45,2.61,2.54s.88,2.39.88,3.91v11.23h-3.13l-.29-3.06c-.26.48-.58.94-.94,1.37-.36.43-.79.8-1.28,1.12-.49.31-1.06.56-1.69.74-.64.18-1.34.27-2.11.27ZM464.13,459.83c.77,0,1.46-.16,2.09-.47s1.16-.74,1.6-1.28c.44-.54.78-1.15,1.01-1.84.23-.68.35-1.39.38-2.11v-.11h-4.28c-1.03,0-1.87.13-2.5.38s-1.1.59-1.39,1.03-.43.94-.43,1.51.14,1.11.41,1.53c.28.42.68.75,1.21.99.53.24,1.16.36,1.91.36Z"/>
    <path class="cls-2" d="M484.14,462.75c-1.42,0-2.65-.29-3.69-.86-1.04-.58-1.85-1.44-2.41-2.59-.56-1.15-.85-2.6-.85-4.36v-10.76h3.6v10.37c0,1.71.37,2.99,1.12,3.85.74.86,1.81,1.3,3.2,1.3.94,0,1.78-.23,2.54-.68s1.35-1.12,1.78-1.98c.43-.86.65-1.92.65-3.17v-9.68h3.6v18.14h-3.2l-.25-3.1c-.55,1.1-1.36,1.97-2.41,2.59-1.06.62-2.28.94-3.67.94Z"/>
    <path class="cls-2" d="M505.63,462.75c-1.54,0-2.88-.25-4.03-.76-1.15-.5-2.06-1.21-2.74-2.12-.67-.91-1.08-1.98-1.22-3.2h3.67c.12.58.35,1.1.7,1.58.35.48.83.86,1.44,1.15s1.34.43,2.18.43c.79,0,1.45-.11,1.96-.34.52-.23.89-.54,1.13-.94.24-.4.36-.82.36-1.28,0-.67-.16-1.18-.49-1.53-.32-.35-.8-.62-1.44-.83-.64-.2-1.4-.39-2.29-.56-.84-.14-1.65-.34-2.43-.59-.78-.25-1.48-.57-2.09-.95-.61-.38-1.1-.87-1.46-1.46-.36-.59-.54-1.31-.54-2.18,0-1.03.28-1.96.83-2.79.55-.83,1.34-1.48,2.36-1.94,1.02-.47,2.23-.7,3.62-.7,2.02,0,3.64.48,4.86,1.44,1.22.96,1.94,2.32,2.16,4.07h-3.49c-.1-.82-.46-1.45-1.08-1.89-.62-.44-1.45-.67-2.48-.67s-1.82.2-2.38.61c-.55.41-.83.95-.83,1.62,0,.43.16.82.47,1.15.31.34.77.62,1.39.85.61.23,1.36.44,2.25.63,1.27.24,2.41.54,3.42.9,1.01.36,1.81.89,2.41,1.58.6.7.9,1.69.9,2.99.02,1.13-.26,2.12-.85,2.99-.59.86-1.42,1.54-2.48,2.02-1.07.48-2.33.72-3.8.72Z"/>
    <path class="cls-2" d="M523.74,462.31c-1.13,0-2.11-.18-2.95-.54-.84-.36-1.49-.96-1.94-1.8s-.68-1.98-.68-3.42v-9.32h-3.13v-3.06h3.13l.43-4.54h3.17v4.54h5.15v3.06h-5.15v9.36c0,1.03.22,1.73.65,2.11.43.37,1.17.56,2.23.56h2.09v3.06h-2.99Z"/>
    <path class="cls-2" d="M551.32,462.75c-2.47,0-4.6-.54-6.39-1.64-1.79-1.09-3.17-2.62-4.14-4.57-.97-1.96-1.46-4.23-1.46-6.82s.49-4.84,1.46-6.8c.97-1.97,2.35-3.5,4.14-4.59,1.79-1.09,3.92-1.64,6.39-1.64,2.95,0,5.35.71,7.18,2.12s3.01,3.41,3.51,5.98h-3.96c-.36-1.49-1.1-2.68-2.21-3.56s-2.62-1.33-4.52-1.33c-1.7,0-3.18.4-4.43,1.19s-2.21,1.92-2.88,3.38c-.67,1.46-1.01,3.22-1.01,5.26s.34,3.8,1.01,5.27c.67,1.48,1.63,2.6,2.88,3.38,1.25.78,2.72,1.17,4.43,1.17,1.9,0,3.4-.43,4.52-1.28s1.85-2.01,2.21-3.47h3.96c-.5,2.5-1.67,4.45-3.51,5.85s-4.23,2.11-7.18,2.11Z"/>
    <path class="cls-2" d="M566.15,462.31v-25.92h3.6v25.92h-3.6Z"/>
    <path class="cls-2" d="M582.89,462.75c-1.73,0-3.26-.4-4.61-1.19s-2.39-1.9-3.15-3.31c-.76-1.42-1.13-3.06-1.13-4.93s.38-3.59,1.13-5.02c.76-1.43,1.81-2.54,3.15-3.35,1.34-.8,2.9-1.21,4.68-1.21s3.3.4,4.57,1.19,2.26,1.84,2.95,3.15c.7,1.31,1.04,2.75,1.04,4.34,0,.24,0,.5-.02.77-.01.28-.03.58-.05.92h-14.83v-2.56h11.3c-.07-1.51-.58-2.69-1.51-3.55-.94-.85-2.1-1.28-3.49-1.28-.98,0-1.88.22-2.7.67-.82.44-1.47,1.09-1.96,1.94-.49.85-.74,1.93-.74,3.22v1.01c0,1.34.25,2.48.74,3.4.49.92,1.15,1.62,1.96,2.09.82.47,1.7.7,2.66.7,1.15,0,2.1-.25,2.84-.76.74-.5,1.3-1.19,1.66-2.05h3.6c-.31,1.1-.84,2.09-1.58,2.97s-1.66,1.57-2.75,2.07c-1.09.5-2.35.76-3.76.76Z"/>
    <path class="cls-2" d="M601.54,462.75c-1.49,0-2.72-.25-3.71-.76-.98-.5-1.72-1.18-2.2-2.03-.48-.85-.72-1.77-.72-2.75,0-1.2.31-2.23.94-3.08.62-.85,1.51-1.51,2.66-1.96,1.15-.46,2.53-.68,4.14-.68h4.72c0-1.06-.16-1.93-.47-2.63-.31-.7-.77-1.22-1.39-1.57-.61-.35-1.39-.52-2.32-.52-1.08,0-2,.26-2.77.77-.77.52-1.25,1.28-1.44,2.29h-3.6c.14-1.27.58-2.36,1.31-3.26.73-.9,1.67-1.6,2.83-2.09,1.15-.49,2.38-.74,3.67-.74,1.7,0,3.13.3,4.28.9,1.15.6,2.02,1.45,2.61,2.54s.88,2.39.88,3.91v11.23h-3.13l-.29-3.06c-.26.48-.58.94-.94,1.37-.36.43-.79.8-1.28,1.12-.49.31-1.06.56-1.69.74-.64.18-1.34.27-2.11.27ZM602.22,459.83c.77,0,1.46-.16,2.09-.47s1.16-.74,1.6-1.28c.44-.54.78-1.15,1.01-1.84.23-.68.35-1.39.38-2.11v-.11h-4.28c-1.03,0-1.87.13-2.5.38s-1.1.59-1.39,1.03-.43.94-.43,1.51.14,1.11.41,1.53c.28.42.68.75,1.21.99.53.24,1.16.36,1.91.36Z"/>
    <path class="cls-2" d="M615.58,462.31v-18.14h3.24l.22,3.1c.58-1.08,1.39-1.94,2.45-2.57,1.06-.64,2.27-.95,3.64-.95,1.44,0,2.68.29,3.71.86,1.03.58,1.84,1.45,2.41,2.61.58,1.16.86,2.62.86,4.37v10.73h-3.6v-10.37c0-1.68-.37-2.95-1.12-3.82-.74-.86-1.82-1.3-3.24-1.3-.94,0-1.78.22-2.52.67-.74.45-1.34,1.1-1.78,1.96-.44.86-.67,1.92-.67,3.17v9.68h-3.6Z"/>
    <path class="cls-2" d="M638.8,440.75c-.7,0-1.27-.22-1.71-.65-.44-.43-.67-.98-.67-1.66s.22-1.18.67-1.6c.44-.42,1.01-.63,1.71-.63s1.24.21,1.69.63.68.95.68,1.6-.23,1.22-.68,1.66-1.02.65-1.69.65ZM636.96,462.31v-18.14h3.6v18.14h-3.6Z"/>
    <path class="cls-2" d="M645.71,462.31v-18.14h3.24l.22,3.1c.58-1.08,1.39-1.94,2.45-2.57,1.06-.64,2.27-.95,3.64-.95,1.44,0,2.68.29,3.71.86,1.03.58,1.84,1.45,2.41,2.61.58,1.16.86,2.62.86,4.37v10.73h-3.6v-10.37c0-1.68-.37-2.95-1.12-3.82-.74-.86-1.82-1.3-3.24-1.3-.94,0-1.78.22-2.52.67-.74.45-1.34,1.1-1.78,1.96-.44.86-.67,1.92-.67,3.17v9.68h-3.6Z"/>
    <path class="cls-2" d="M674.22,470.67c-1.66,0-3.12-.21-4.39-.63-1.27-.42-2.26-1.06-2.95-1.93-.7-.86-1.04-1.92-1.04-3.17,0-.65.14-1.3.43-1.96s.76-1.29,1.4-1.89c.65-.6,1.52-1.14,2.63-1.62l2.02,1.62c-1.22.46-2.05,1-2.47,1.64s-.63,1.25-.63,1.85c0,.72.22,1.32.65,1.8.43.48,1.03.84,1.78,1.08.76.24,1.61.36,2.57.36s1.75-.13,2.45-.4c.7-.26,1.24-.64,1.62-1.12.38-.48.58-1.04.58-1.69,0-.77-.29-1.41-.86-1.93-.58-.52-1.68-.82-3.31-.92-1.37-.1-2.53-.23-3.47-.4-.95-.17-1.75-.37-2.41-.61-.66-.24-1.21-.5-1.66-.79s-.82-.59-1.13-.9v-.83l3.6-3.71,2.92,1.01-3.92,3.64.76-1.62c.26.17.52.33.76.49s.56.29.97.41c.41.12.96.23,1.66.32.7.1,1.61.19,2.74.29,1.63.12,2.95.41,3.94.86,1,.46,1.72,1.07,2.18,1.84s.68,1.68.68,2.74-.28,2.02-.85,2.95c-.56.94-1.44,1.7-2.63,2.3-1.19.6-2.72.9-4.59.9ZM674.22,456.73c-1.54,0-2.84-.29-3.91-.86-1.07-.58-1.88-1.36-2.45-2.34-.56-.98-.85-2.08-.85-3.28s.28-2.32.85-3.29c.56-.97,1.39-1.75,2.47-2.34,1.08-.59,2.38-.88,3.89-.88s2.8.29,3.87.88c1.07.59,1.88,1.37,2.45,2.34.56.97.85,2.07.85,3.29s-.28,2.29-.85,3.28c-.56.98-1.38,1.76-2.45,2.34-1.07.58-2.36.86-3.87.86ZM674.22,453.85c1.18,0,2.11-.31,2.81-.92s1.04-1.51,1.04-2.68-.35-2.07-1.04-2.68c-.7-.61-1.63-.92-2.81-.92s-2.12.31-2.84.92c-.72.61-1.08,1.51-1.08,2.68s.36,2.07,1.08,2.68c.72.61,1.67.92,2.84.92ZM677.17,447.01l-.86-2.84h7.45v2.48l-6.59.36Z"/>
  </g>
</svg>