<svg width="70" height="71" viewBox="0 0 70 71" fill="none" xmlns="http://www.w3.org/2000/svg">
<path d="M31.8022 26.704C33.3823 27.3889 34.186 28.9157 34.0995 30.5969C34.0176 32.1882 33.1615 33.5351 31.6907 34.1485C30.9553 34.4737 30.2062 34.5913 29.3775 34.6305H19.6191V19.4024L29.1498 19.407C29.9489 19.407 30.6957 19.5846 31.4061 19.8614C32.7858 20.4218 33.5645 21.6533 33.6692 23.127C33.7739 24.6122 33.166 25.9775 31.8022 26.704ZM30.5887 23.8466C30.5933 23.1893 30.2791 22.7119 29.7463 22.4282C29.3797 22.2852 28.9995 22.2068 28.5806 22.1768L22.7474 22.1814V25.507L28.5806 25.5094C29.6006 25.4655 30.5796 25.0758 30.5887 23.8466ZM30.4157 31.3303C31.1055 30.65 31.1306 29.5545 30.5181 28.8419C30.1197 28.4337 29.6211 28.2815 29.0473 28.2169H22.7452L22.7474 31.84H29.0154C29.53 31.7939 29.9922 31.6739 30.4134 31.3303H30.4157Z" fill="#CC2211"/>
<path d="M49.7752 51.194C46.6788 53.3688 41.046 52.8545 38.0202 50.6059C37.4054 50.1377 36.8636 49.628 36.456 48.9592L38.5188 46.6461C40.2514 49.2936 43.5368 50.1377 46.4397 49.5404C46.9201 49.4412 47.3436 49.2567 47.7398 48.9823C48.3818 48.5372 48.5936 47.6124 48.0745 46.9874C47.8445 46.7083 47.4165 46.5631 47.0613 46.4846C45.1055 46.0465 43.234 46.0349 41.1917 45.5806C39.3589 45.1724 37.6559 44.3283 37.4692 42.2181C37.2187 39.386 39.3908 37.6171 41.934 37.1074C44.2426 36.6462 46.6196 36.916 48.7621 37.8731C49.798 38.3897 50.711 39.0193 51.3827 39.9972L49.3381 42.1166C48.671 41.178 47.7785 40.5622 46.713 40.1725C45.2695 39.6328 42.3871 39.416 41.1348 40.4123C40.6339 40.8113 40.4176 41.5839 40.8252 42.1189C41.0529 42.4187 41.4968 42.5686 41.8657 42.6563C43.8419 43.1244 45.8273 43.1659 47.9265 43.6503C49.8253 44.0861 51.4578 44.9464 51.6263 47.1142C51.7538 48.7471 51.1094 50.253 49.7752 51.1894V51.194Z" fill="#CC2211"/>
<path d="M34.4911 52.3263L31.2467 52.3563L31.2399 45.975H22.8704L22.8658 52.3517L19.6191 52.3494V37.1144H22.8658L22.8704 43.0922H31.2422L31.2444 37.1144H34.4911V52.3263Z" fill="#CC2211"/>
<path d="M51.4897 34.6213L48.243 34.6305L48.2361 28.2584L39.8644 28.2607L39.8621 34.6282L36.6131 34.6259L36.6154 19.4024L39.8621 19.4001L39.8644 25.3779H48.2384L48.2407 19.407L51.4874 19.4001L51.4897 34.6213Z" fill="#CC2211"/>
<path d="M67.5251 22.3659C67.664 22.5551 67.7574 22.7672 67.8666 23.0532L64.0166 23.6205L63.7206 22.9817L65.6718 21.2659L63.1241 21.6303L62.8349 20.973L65.7652 18.4038L66.0953 19.068L64.0621 20.7977L66.6577 20.378L66.9832 21.056L64.9888 22.7649L67.5229 22.3636L67.5251 22.3659Z" fill="#CC2211"/>
<path d="M16.7504 65.8017L17.907 63.9683L15.8761 65.1583C15.8146 65.1929 15.6302 65.0591 15.6416 64.9715L15.9216 62.6122L14.7217 64.4272L14.1662 64.072L16.2085 60.9332C16.4043 60.9955 16.6092 61.1293 16.764 61.2746L16.4407 64.0328L18.8063 62.6491C18.9816 62.739 19.1569 62.8544 19.3573 62.9996L17.3036 66.1569L16.7481 65.804L16.7504 65.8017Z" fill="#CC2211"/>
<path d="M0.00227679 34.6651L0.0751342 33.09C0.0956253 32.6403 0.359733 32.2713 0.726297 32.1421C1.14067 31.9968 1.58009 32.0452 1.88974 32.4235C2.14019 32.0775 2.49309 31.9438 2.91657 32.0014C3.42657 32.0729 3.85916 32.4765 3.82729 33.0346L3.72711 34.8842L0 34.6674L0.00227679 34.6651ZM3.11238 34.1047L3.16019 33.2122C3.17385 32.9539 2.98032 32.7394 2.73898 32.7048C2.56822 32.6795 2.25175 32.7948 2.23353 33.0254L2.15612 34.0494L3.11465 34.1047H3.11238ZM1.50041 34.0171L1.52545 33.06C1.53 32.8962 1.23402 32.7809 1.09969 32.7925C0.985851 32.8017 0.765002 32.9447 0.755895 33.0669L0.692145 33.964L1.50041 34.0171Z" fill="#CC2211"/>
<path d="M12.2082 60.9217C11.4682 61.3299 10.685 61.1316 10.1272 60.5712C9.56936 60.0107 9.39177 59.2151 9.76972 58.4886C9.9974 58.0504 10.364 57.6768 10.7874 57.4324C11.5001 57.0219 12.2924 57.1764 12.8662 57.7322C13.465 58.3111 13.6494 59.1505 13.2282 59.9047C12.9982 60.3175 12.643 60.6796 12.2082 60.9194V60.9217ZM11.4841 60.3867C12.092 60.2506 12.5406 59.7409 12.7091 59.2059C12.8229 58.8392 12.659 58.5025 12.4404 58.2672C12.2218 58.032 11.9053 57.8406 11.532 57.9398C10.9741 58.0873 10.455 58.5624 10.3116 59.1574C10.1522 59.8124 10.7943 60.5435 11.4841 60.3867Z" fill="#CC2211"/>
<path d="M26.1877 3.72689C25.9372 3.77302 25.6572 3.85374 25.4158 3.92984L25.7505 5.1729L25.0675 5.35279L24.0429 1.70201L25.7665 1.21078C26.3835 1.0332 26.9208 1.42526 27.1052 2.00874C27.2623 2.49997 27.2464 3.00273 26.8616 3.38787L27.8634 4.53639L27.1098 4.77162L26.1877 3.72458V3.72689ZM26.1717 2.98659C26.4745 2.89203 26.4996 2.55532 26.4404 2.30855C26.3971 2.13097 26.1991 1.82655 25.9418 1.87729C25.5752 1.94878 25.2565 2.04795 24.9036 2.15865L25.2246 3.27948L26.1695 2.98659H26.1717Z" fill="#CC2211"/>
<path d="M5.31631 22.0016L4.99301 22.7211L6.14279 23.2562L5.86046 23.9134L2.42478 22.3683L3.14197 20.7493C3.41291 20.1381 4.05497 19.9398 4.6401 20.1842C5.10229 20.3757 5.46658 20.7054 5.51667 21.2589L7.03301 21.2151L6.7302 21.9462L5.31631 22.0016ZM4.376 22.449C4.53537 22.0869 4.67198 21.7917 4.77899 21.4527C4.86778 21.1713 4.6014 20.9638 4.40104 20.8738C4.23711 20.8 3.89787 20.7746 3.78403 20.9822C3.60416 21.312 3.47439 21.6233 3.32412 21.9808L4.37372 22.4467L4.376 22.449Z" fill="#CC2211"/>
<path d="M39.8279 69.351L39.0379 69.4502L39.2018 70.7279L38.5051 70.8132L37.9906 67.0586L39.7323 66.8142C40.3903 66.7219 40.8912 67.1924 40.9868 67.8197C41.0642 68.3294 40.9663 68.816 40.5406 69.1204L41.383 70.4096L40.5907 70.518L39.8302 69.351H39.8279ZM39.8666 68.6453C40.1922 68.5946 40.3106 68.3109 40.2901 68.0526C40.2719 67.8381 40.1399 67.4922 39.8575 67.5014C39.4864 67.513 39.1335 67.5729 38.7783 67.6375L38.94 68.7883L39.8689 68.6453H39.8666Z" fill="#CC2211"/>
<path d="M29.25 68.7676C29.5232 69.4571 29.0746 70.1329 28.4189 70.2597C27.8771 70.3635 27.3238 70.2643 26.8798 69.9437C26.4768 69.6508 26.2469 69.1919 26.3243 68.703L27.0141 68.7468C27.0916 69.0581 27.2282 69.3487 27.4445 69.4733C27.7541 69.6508 28.0797 69.6854 28.3825 69.5332C28.4622 69.494 28.5646 69.3257 28.5715 69.2403C28.5783 69.1435 28.4804 68.9451 28.3916 68.8944L27.1576 68.1841C26.8092 67.9834 26.7022 67.5683 26.766 67.2247C26.8366 66.8465 27.0574 66.5098 27.465 66.3921C27.9886 66.2376 28.5829 66.3437 29.0314 66.6597C29.4071 66.9249 29.6234 67.3238 29.5892 67.7828L28.872 67.7413C28.7696 67.4161 28.6489 67.2108 28.4258 67.1048C28.1639 66.9802 27.8315 66.9618 27.6038 67.1417C27.4262 67.2846 27.5287 67.5798 27.704 67.6767L28.7491 68.251C28.9175 68.3432 29.1657 68.5554 29.2477 68.7606L29.25 68.7676Z" fill="#CC2211"/>
<path d="M12.4518 13.4777C11.9486 13.7406 11.3999 13.7037 10.9878 13.3531L11.4067 12.7674C11.7596 12.9034 12.042 12.938 12.3584 12.7259C12.7455 12.4652 12.9413 11.8956 12.6362 11.7019C12.0397 11.326 10.8831 13.1779 9.90633 12.064C9.65132 11.7734 9.57391 11.3882 9.71735 11.0077C10.0429 10.1498 11.0561 9.44868 11.9941 10.0368L11.5479 10.6687C11.0174 10.4104 10.4983 10.7333 10.3731 11.2637C10.3526 11.349 10.4049 11.5289 10.4619 11.5866C10.5279 11.6558 10.7761 11.6857 10.858 11.6396L11.8962 11.0584C12.297 10.8324 12.7227 10.8209 13.0642 11.0815C13.4058 11.3421 13.5811 11.7296 13.4718 12.1931C13.3443 12.7351 12.9663 13.2079 12.4541 13.4754L12.4518 13.4777Z" fill="#CC2211"/>
<path d="M64.7201 54.0307C64.6495 54.5772 64.3718 55.0616 63.9483 55.3914C63.5248 55.7211 62.9943 55.7857 62.5298 55.5436L62.819 54.884C63.4383 55.0247 63.9597 54.658 64.0439 54.0145C64.0621 53.8738 63.9665 53.6548 63.8595 53.6017C63.1719 53.2627 62.391 55.4144 61.2093 54.4896C60.4898 53.9269 60.861 52.9098 61.4256 52.3748C61.8149 52.0035 62.3295 51.8859 62.8509 52.0796L62.5731 52.7645C62.2703 52.753 62.0198 52.7599 61.7967 52.9721C61.4962 53.2558 61.4074 53.7839 61.6988 53.92C61.7762 53.9569 61.988 53.9338 62.0563 53.8738L62.9852 53.069C63.1719 52.9075 63.4793 52.7553 63.7252 52.7738C64.3672 52.8222 64.7998 53.4057 64.7178 54.033L64.7201 54.0307Z" fill="#CC2211"/>
<path d="M16.1721 10.0944L14.0683 6.9441L14.6557 6.55204L15.53 7.83431L16.9029 6.88645L16.0491 5.59034L16.632 5.19136L18.7335 8.32554L18.1529 8.73605L17.2809 7.44917L15.8988 8.39703L16.7572 9.68392L16.1721 10.0944Z" fill="#CC2211"/>
<path d="M42.6193 4.6517L41.9203 4.53407L42.2117 3.00273L40.5793 2.66371L40.2765 4.17661C40.0511 4.16277 39.7961 4.11203 39.5843 4.0267L40.3038 0.348245L41.0005 0.465866L40.7113 1.99721L42.3415 2.33392L42.6466 0.811802L43.341 0.943253L42.6216 4.654L42.6193 4.6517Z" fill="#CC2211"/>
<path d="M57.4139 13.2794C57.2204 13.1571 57.0473 12.9934 56.8766 12.8089L57.9171 11.6719L56.699 10.5142L55.6357 11.6581L55.1257 11.1691L57.6598 8.39934L58.1903 8.86981L57.1475 10.0206L58.3656 11.1761L59.4243 10.0345L59.9297 10.5326L57.4116 13.2863L57.4139 13.2794Z" fill="#CC2211"/>
<path d="M6.74386 56.4545L6.33631 55.8664L7.6136 54.9924L6.68694 53.5879L5.40511 54.4481L5.02033 53.8462L8.1236 51.7429L8.51748 52.3379L7.24248 53.2073L8.17141 54.6188L9.44869 53.7585L9.84485 54.3443L6.74386 56.4545Z" fill="#CC2211"/>
<path d="M47.7375 6.50591L47.7831 5.66183L46.4944 5.12216L45.9662 5.761L45.3082 5.47272L47.7717 2.41233L48.7666 2.8067L48.4023 6.7596L47.7421 6.50822L47.7375 6.50591ZM47.8559 4.96304L47.9834 3.28409L46.927 4.57789L47.8559 4.96304Z" fill="#CC2211"/>
<path d="M60.7995 17.5782L61.2867 16.8955L60.4693 15.7493L59.6884 16.0122L59.274 15.4172L62.9488 14.1188L63.5908 14.9814L61.2435 18.1524L60.8018 17.5805L60.7995 17.5782ZM61.7147 16.3236L62.6824 14.9721L61.1091 15.5164L61.7147 16.3236Z" fill="#CC2211"/>
<path d="M65.6422 29.31L66.3617 28.858L66.0498 27.4927L65.2483 27.4189C65.1891 27.2137 65.1277 26.93 65.0912 26.704L68.9777 26.9854L69.2213 28.0232L65.838 29.9996L65.6399 29.31H65.6422ZM68.3903 27.6588L66.7487 27.5204L66.9673 28.5075L68.3903 27.6588Z" fill="#CC2211"/>
<path d="M55.3329 63.6223C55.7655 63.3317 55.9066 62.8912 55.7609 62.4023L56.4371 62.1533C56.7081 62.9074 56.4166 63.6246 55.8292 64.0997C55.1803 64.6209 54.3425 64.6855 53.6663 64.1666C53.277 63.8668 52.9719 63.4401 52.8011 62.972C52.5142 62.1786 52.817 61.3945 53.4796 60.9194C54.1012 60.4743 54.8957 60.3982 55.5196 60.8964L55.0938 61.4591C54.7045 61.2492 54.3539 61.1777 53.9828 61.3991C53.6686 61.5859 53.3635 61.9157 53.4136 62.3654C53.4705 62.8959 53.8074 63.3617 54.2286 63.6523C54.5747 63.8899 54.9777 63.8622 55.3306 63.6246L55.3329 63.6223Z" fill="#CC2211"/>
<path d="M34.7256 69.3372L33.3026 69.298L33.2799 70.262L34.992 70.3243L34.967 71L32.5285 70.8985L32.6651 67.1071L35.0945 67.1901L35.0877 67.8612L33.3596 67.8082L33.3254 68.6107L34.7439 68.6753L34.7256 69.3372Z" fill="#CC2211"/>
<path d="M32.7107 2.17018L31.2922 2.32008L31.3901 3.2887L33.1068 3.12035L33.1706 3.79146L30.7367 4.0267L30.3747 0.24216L32.7949 0L32.8769 0.664199L31.1579 0.841777L31.2262 1.64435L32.631 1.50828L32.7107 2.17018Z" fill="#CC2211"/>
<path d="M2.93251 28.0854L3.85689 28.323L4.26671 26.6233L4.91104 26.7801L4.33274 29.1855L0.689868 28.2907L1.26134 25.8922C1.49358 25.936 1.70076 25.989 1.9034 26.0513L1.50951 27.751L2.27907 27.9332L2.61376 26.5449L3.25581 26.6971L2.93023 28.0854H2.93251Z" fill="#CC2211"/>
<path d="M58.994 58.9983L59.6838 59.6717L60.886 58.3918L61.3618 58.8484L59.6884 60.6588L56.9562 58.0458L58.6297 56.24L59.1101 56.6944L57.9284 57.9882L58.5045 58.5371L59.4767 57.5016L59.9662 57.949L58.994 58.9983Z" fill="#CC2211"/>
<path d="M23.18 67.1509L21.8618 66.6112L21.4861 67.4991L23.0935 68.1795L22.8453 68.7929L20.5777 67.8543L22.0029 64.3326L24.2615 65.2736L24.0156 65.8963L22.4127 65.2344L22.1122 65.9793L23.4214 66.5351L23.18 67.1509Z" fill="#CC2211"/>
<path d="M8.859 18.0464L8.46967 18.6367L5.396 16.4919L5.78078 15.8969L7.1719 16.8356L6.59359 14.6862L7.0831 13.9989L7.72744 16.3443L10.1955 16.0607L9.72646 16.7964L7.50659 17.0731L8.859 18.0464Z" fill="#CC2211"/>
<path d="M43.3 66.0946L43.9785 65.8548L45.8273 68.4862L45.7795 65.2344L46.4693 65.0314L46.5672 68.9913L45.5563 69.3234L43.3 66.0946Z" fill="#CC2211"/>
<path d="M70 35.274L67.7482 34.1186L66.2137 34.1785L66.1818 33.4613L67.6822 33.3806L69.8247 31.9922L69.8953 32.8063L68.536 33.6988L69.9727 34.4484L70 35.274Z" fill="#CC2211"/>
<path d="M51.9496 8.79601C51.7151 8.68993 51.5352 8.57461 51.3417 8.42471L52.9741 5.79559L51.9837 5.14293L52.3457 4.58712L54.9276 6.23839L54.5861 6.81034L53.5798 6.18074L51.9519 8.79601H51.9496Z" fill="#CC2211"/>
<path d="M2.45666 44.0585C3.03496 43.8486 3.60872 44.1646 3.77948 44.7296C3.92974 45.2254 3.67019 45.802 3.15108 45.9934C2.63197 46.1848 2.05822 45.9242 1.85786 45.3984C1.65751 44.8726 1.88291 44.2683 2.45438 44.0608L2.45666 44.0585Z" fill="#CC2211"/>
<path d="M66.7897 44.0608C67.3657 43.8486 67.9418 44.1623 68.1171 44.7227C68.2742 45.2185 68.0169 45.802 67.4887 45.9934C66.9605 46.1848 66.4027 45.9288 66.1955 45.3892C66.0065 44.9003 66.2182 44.2706 66.7897 44.0585V44.0608Z" fill="#CC2211"/>
<path d="M22.1532 6.53589L21.5134 6.84724L19.9424 3.43169C20.1246 3.29793 20.3272 3.20337 20.5822 3.10882L22.1532 6.53589Z" fill="#CC2211"/>
<path d="M51.2757 66.8949L50.6473 67.227L48.9442 63.8714C49.1286 63.7469 49.3153 63.6454 49.5703 63.5324L51.2757 66.8972V66.8949Z" fill="#CC2211"/>
</svg>
