<?xml version="1.0" encoding="UTF-8"?>
<svg id="Layer_1" xmlns="http://www.w3.org/2000/svg" version="1.1" viewBox="0 0 238.06 47.2">
  <!-- Generator: Adobe Illustrator 30.2.1, SVG Export Plug-In . SVG Version: 2.1.1 Build 1)  -->
  <defs>
    <style>
      .st0 {
        fill: #c21;
      }
    </style>
  </defs>
  <g id="concord">
    <path class="st0" d="M175.55,30.29c0,9.34-7.59,16.92-16.94,16.92s-16.94-7.57-16.94-16.92,7.59-16.92,16.94-16.92,16.94,7.57,16.94,16.92ZM164.51,35.07c1.3-2.05,1.46-4.4,1.1-6.69-.55-3.6-3.47-6.05-7.11-5.99-3.42.05-6.16,2.29-6.84,5.65-.48,2.38-.28,4.86,1.02,6.94s3.57,3.21,5.93,3.21,4.56-1.01,5.9-3.12Z"/>
    <g>
      <path class="st0" d="M88.18,22.39c-3.12-.16-5.39,1.96-5.63,5.01v18.76s-9.69,0-9.69,0V14.48s9.3-.02,9.3-.02l.09,3.46c3.04-4.28,8.93-5.14,13.44-3.53,4.74,1.69,6.84,6.39,6.94,11.21v20.56s-9.63,0-9.63,0l-.02-19.1c-.34-2.67-2.04-4.52-4.8-4.67Z"/>
      <g>
        <path class="st0" d="M0,31.92v-3.17c.92-8.1,6.68-14.42,15.07-15.16,2.73-.24,5.39.04,8.02,1,4.45,1.68,7.81,5.3,8.92,9.94l-8.65,2.59c-.88-2.98-3.31-4.75-6.3-4.7-3.24-.08-6.02,1.84-6.95,4.93-.6,1.98-.62,4.03.03,6.01,1.01,3.07,3.88,4.95,7.11,4.84,3.06,0,5.52-1.85,6.45-4.71l8.5,2.61c-1.4,5.33-5.57,9.2-10.83,10.5-10.65,2.3-20.01-3.86-21.39-14.67Z"/>
        <path class="st0" d="M68.58,30.29c0,9.34-7.59,16.92-16.94,16.92s-16.94-7.57-16.94-16.92,7.59-16.92,16.94-16.92,16.94,7.57,16.94,16.92ZM52.08,38.18c3.06-.17,5.42-2.06,6.28-4.86.59-1.92.61-3.93.07-5.87-.86-3.13-3.62-5.09-6.85-5.05-3.05.04-5.66,1.79-6.62,4.7-.65,1.96-.68,4.03-.1,6.01.93,3.19,3.76,5.26,7.22,5.07Z"/>
      </g>
    </g>
    <path class="st0" d="M116.85,33.01c.94,3.3,3.81,5.21,7.14,5.19,3.05-.02,5.6-1.79,6.51-4.73l8.52,2.61c-1.48,5.72-6.23,9.77-12.04,10.77-2.15.29-4.23.32-6.33-.04-8.43-1.45-14.09-8.61-13.79-17.09.23-6.37,3.63-12.08,9.54-14.71,4.41-1.96,9.34-1.99,13.86-.3,4.25,1.75,7.38,5.17,8.57,9.79l-8.66,2.63c-.84-2.96-3.35-4.81-6.39-4.71-3.11-.07-5.77,1.77-6.8,4.68-.62,1.92-.72,3.89-.14,5.92Z"/>
    <g>
      <path class="st0" d="M238.06,45.81v.31l-9.32.04-.33-2.93c-1.92,2.34-4.73,3.44-7.8,3.58-6.78.31-12.79-3.55-15.15-9.94-2.99-8.08-.36-18.36,8.07-21.96,4.38-1.87,11.23-1.9,14.7,1.82V0s9.56,0,9.56,0c-.04.51-.12.93-.12,1.44l.04,40.44c0,1.39.17,2.71.35,3.92ZM228.29,31.42c.21-2.52-.18-4.94-1.84-6.76-2.55-2.8-7.04-3.03-9.93-.6-3.08,2.6-3.22,8.2-1.06,11.26,1.78,2.53,4.97,3.45,7.97,2.54,2.67-.82,4.59-3.3,4.86-6.43Z"/>
      <polygon class="st0" points="189.45 46.14 179.87 46.14 179.86 14.45 189.41 14.43 189.53 20.53 196.57 13.55 203.96 20.92 196.55 28.32 189.49 21.33 189.45 46.14"/>
    </g>
  </g>
</svg>