<?xml version="1.0" encoding="UTF-8"?>
<svg id="crest" xmlns="http://www.w3.org/2000/svg" version="1.1" viewBox="0 0 54 72">
  <!-- Generator: Adobe Illustrator 30.2.1, SVG Export Plug-In . SVG Version: 2.1.1 Build 1)  -->
  <defs>
    <style>
      .st0 {
        fill: #c21;
      }
    </style>
  </defs>
  <path id="crest1" data-name="crest" class="st0" d="M0,0v40.34c0,1.06.04,2.12.13,3.17.09,1.05.22,2.1.39,3.14.88,5.42,3.18,9.69,6.95,13.75,2.94,3.17,6.32,6.01,10.19,8.02,2.98,1.54,3.28,1.99,9.34,3.58,6.07-1.59,6.37-2.04,9.34-3.58,3.88-2.01,7.26-4.85,10.2-8.02,3.76-4.06,6.06-8.33,6.95-13.75.34-2.08.51-4.19.51-6.31V0H0ZM9.21,13.49l-.93-1.44-1.27-.89,2.51.39,1.47,1.22.82,1.23.27-1.05.05-1.79-.49-1.87,1.27,1.26.74,1.18c.12.19.18.41.17.64l-.07,1.32.42,1.89,1.27,2.17c.59.48,1.18.96,1.76,1.44.28.23.8.36.78.78-.01.25-.16.46-.28.67-.9,1.52-.94,3.39-.79,5.14.03.24.05.54-.11.75-.09.13-.27.2-.4.11-.06-.03-.09-.09-.12-.15-.17-.28-.34-.56-.5-.84-.41-.68-.82-1.36-1.23-2.04-.12-.2-.22-.4-.31-.62l-1.19-2.93-.5-.78-.94-.11-1.44.56-1.78-.28-1.27-.81,1.84.17,1.11-.5.37-.72c-.12-.1-.21-.24-.25-.4l-.11-.41-.99-.6-1.17-1.13-.37-.08-2.2-.47,1.81-.51,1.4-.12,1.44.82-.79-1.2ZM22.65,55.49c-.32.13-.55.39-.65.71l-.09.33v1.28l-.8-1.84v-1.39l.51-.66-.51.29-1.1.55-2.35.42,1.34-1,.72-.91.18-.68-1.08-.18-3.75-1.33-1.08-.11-.88.85-1.7.67h-2.2l1.81-.85.8-1.18-.27-.28-.35.05c-.34.04-.68-.05-.95-.26l-.42-.34-1.7-.28-1.75.28,1.01-1.14.8-.31h1.35v-.83l-1.52-1.11-1.64-.5,1.8-.49,1.46.08,1.16,1.11-.13-.87-.36-1.11-1.33-1.56,2.05.66.89.84.67,1.19,1.7.64,2.53,2c.27.21.65.26.97.11.26-.12.36-.44.23-.69l-1.27-2.49c-.29-.58-.68-1.1-1.15-1.54l-2.16-2.01c-.2-.19-.28-.47-.21-.73l.11-.38c.16-.52.52-.97,1.02-1.22l1.75-.88,3.62-1.71c.43-.2.88-.34,1.35-.41l2.04-.3c.27-.04.54.02.78.16l1.25.75c.59.36.86,1.07.64,1.72l-.64.71c-.54.6-.91,1.32-1.08,2.1l-.37,1.68c-.07.35-.35.61-.71.67l-.4.06c-.24.04-.43.24-.46.48l-.06.53c-.04.3.01.59.13.86.85,1.86,1.8,3.69,2.2,5.7.12.6.53,1.68.18,2.24l-.66,1.05c-.15.23-.36.41-.62.52l-.65.28ZM47.58,22.87c-.49-.18-.97-.04-1.35.26-.28.21-.5.51-.62.82-.21.51-.23,1.07-.24,1.62-.04,2.34.74,4.34,1.4,6.55.63,2.13.7,4.4.46,6.6-.22,2-.64,3.64-2.23,5.04-1.17,1.03-2.68,1.93-4.18,1.56-1.32-.33-2.54-.85-3.51-1.81-.59-.57-1.07-1.26-1.42-2-.17-.35-.85-1.8-.6-2.16-.49.69-.98,1.38-1.47,2.07-.59.85-.78,1.88-.85,2.9-.05.73-.4,1.98.66,2.04.9.06,1.82-.1,2.72.01.82.11,1.59.46,2.4.56.32.04.64.05.94.15.95.34,1.07,1.54,2.05,1.8l.69.19c.28.08.57.09.85.03l1.7-.34-1.15,1.29-1.27.75c-.18.11-.39.17-.6.19l-1.07.08.39.72c.11.2.18.42.18.65l.03.89c0,.14-.01.29-.05.43l-.36,1.29-.29-1.04c-.08-.29-.25-.54-.49-.72l-.53-.4c-.57.76-1.24,1.44-1.78,1.94-.1.09-1.26.12-1.93.53-.97.59-1.54,1.58-1.63,1.41l.87,1.74c.15.31.2.65.15.99l-.22,1.41-1.35,1.42v-1.87c0-.44-.18-.86-.51-1.16l-.39-.36-.8.28-.42,1.08c-.24.61-.36,1.26-.36,1.91v2.46l-1.3-1.93c-.38-.58-.53-1.28-.41-1.95l.2-1.12-1.05.79c-.4.31-.71.71-.91,1.17l-1.1,2.62-.17-3.07c-.02-.43.08-.86.3-1.23l.11-.18-1.68.15-1.83.69.56-1.29,1.15-.82c.46-.33,1-.51,1.56-.51l.5-.8c.12-.2.3-.36.52-.47l.62-.29c.46-.21.85-.54,1.14-.95.66-.94,1.5-1.74,2.49-2.35l3.41-2.11h-5.96c-1.93,0-3.98-1.56-4.61-3.31-.59-1.65-.43-4.26.15-5.89.61-1.7,2.11-3.06,3.14-4.52l-1.86-1.04c-1.34-.76-2.49-1.8-3.36-3.05l-.65-.94-1.5.83s-.04.02-.05.03l1.29,1.52h-1.19c-.58,0-1.15-.17-1.63-.5l-.81-.55-4.53-.17-1.11,1.86c-.36.62-.99,1.06-1.7,1.2l-2.04.39,1.1-1.05c.31-.3.48-.7.5-1.12l.02-.71-1.36-.2c-.54-.08-1.09-.03-1.61.13l-2.45.78.65-2.21,2.73-.73-1.67-1.07-2.36-.5,2.07-1.16,2.26.94-.67-1.89-1.59-1.28,3.15.39,1.09,2.39,2,.25c.72.09,1.45-.03,2.1-.34l3.37-1.61c.35-.17.46-.6.25-.92-.96-1.39-.25-4.35.35-5.8,1.75-4.31,6.48-4.47,10.49-4.9-1.05-1.66-4.37-1.65-5.02-1.45-.63.18-.64,1.25-.64,1.32l-1.07-.56c-.31-.16-.55-.44-.65-.77l-.21-.67c-.08-.22.06-.46.29-.51l1.33-.29v-.57l.38-.64.08.4c.03.17.09.33.19.47.09.12.23.19.38.18.38-.02.75,0,1.13.06l.14-.52.55-.54-.05.35c-.05.34.1.68.42.88.09.06.19.1.29.12l.86.2.03-.31.16-.37.42.76c.33-.02.64-.15.88-.38l-.21-.39c-.32-.58-.87-1.01-1.51-1.17-.03-.01-.06,0-.08.03-.08.18-.12.38-.12.58v.5l-.48-.65v-.6c-.5-.1-1.02-.14-1.54-.14l-.17.28c-.13.2-.19.43-.18.67l.02.18-.53-.54-.13-.53-1.55.14-.11.22c-.1.19-.13.41-.08.62l.09.33-.56-.24-.41-.83h-.07l-.09-.08c-.44-.4-.65-.98-.57-1.57l.08-.58,3.57-.68,1.78-.78,3.77-.51,1.05-1.04,2.29-.68-.65,1.51.09,1.27.58.16c.48.14.93.37,1.31.68l.34.28c.52.42,1.2.6,1.87.49l.57-.09-.87.98c-.2.22-.46.38-.73.45l.06.49,1.04,1.68c.2.32.45.61.75.84l1.94,1.5-1.12.05c-.43.03-.86-.06-1.25-.24l-.93-.42.33,2.63c.38,3.12-3.42,4.96-4.54,7.56-.73,1.69-.81,4.63.43,6.1l1.55,1.81c.43.51.78,1.08,1.03,1.7l2.04,4.94c.3.74.9,1.32,1.66,1.59l.33.13c3.06,1.11,4.3-2.78,3.87-5.02-.26-1.4-.94-2.68-1.68-3.91-.74-1.22-1.54-2.41-2.1-3.72-.85-1.97-1.23-4.28-.81-6.39.43-2.15,2.1-3.63,2.94-5.59.31-.69.48-1.44.65-2.18.12-.54.24-1.09.19-1.64-.1-1.12-1.24-1.94-1.98-2.71.83.19,1.68.4,2.3.62.91.31,1.7,1.01,2.01,1.92.14.4.18.83.2,1.25.03,1.03-.11,2.06-.42,3.04-.22.71-.8,1.62-.57,2.38.73-.22,1.39-.47,2.18-.37.76.1,1.5.51,1.89,1.16.44.72.57,1.69.81,2.49-.46-.17-.93-.35-1.39-.52Z"/>
</svg>