<?xml version="1.0" encoding="UTF-8"?>
<svg id="h.co_icon" xmlns="http://www.w3.org/2000/svg" version="1.1" viewBox="0 0 79.93 53.82">
  <!-- Generator: Adobe Illustrator 30.2.1, SVG Export Plug-In . SVG Version: 2.1.1 Build 1)  -->
  <defs>
    <style>
      .st0 {
        fill: #eae7e2;
      }

      .st1 {
        fill: #c21;
      }
    </style>
  </defs>
  <g id="co">
    <path class="st1" d="M63.97,28.96c-6.83-.03-12.35-5.62-12.32-12.45s5.62-12.35,12.45-12.32c5.43.03,10.04,3.57,11.68,8.45l4.16.02c-1.75-7.11-8.16-12.42-15.82-12.46-9.03-.05-16.41,7.27-16.46,16.29-.05,9.03,7.27,16.41,16.29,16.46,7.65.04,14.13-5.21,15.94-12.3l-4.16-.02c-1.69,4.86-6.33,8.36-11.76,8.33Z"/>
    <path class="st1" d="M64.08,7.39c-5.06-.03-9.21,4.08-9.23,9.14-.03,5.06,4.08,9.21,9.14,9.23,5.06.03,9.21-4.08,9.23-9.14s-4.08-9.21-9.14-9.23ZM64,21.77c-2.86-.01-5.18-2.36-5.17-5.22s2.36-5.18,5.22-5.17,5.18,2.36,5.17,5.22-2.36,5.18-5.22,5.17Z"/>
  </g>
  <g id="h">
    <polygon class="st0" points="10.25 9.41 10.38 9.34 10.37 9.34 16.59 5.78 9.45 0 .22 5.25 .2 9.29 0 48.34 9.19 53.68 16.39 47.97 10.07 44.28 10.25 9.41"/>
    <polygon class="st0" points="36.3 44.42 36.38 29.85 36.4 25.74 36.48 9.53 36.59 9.47 36.61 9.47 42.82 5.92 35.69 .13 26.45 5.39 26.43 9.42 26.44 9.42 26.37 21.55 19.05 24.37 26.3 35.19 26.24 48.47 35.43 53.82 42.62 48.1 36.3 44.42"/>
  </g>
</svg>