<?xml version="1.0" encoding="UTF-8"?>
<svg id="outlined_crest" xmlns="http://www.w3.org/2000/svg" version="1.1" viewBox="0 0 54 72">
  <!-- Generator: Adobe Illustrator 30.2.1, SVG Export Plug-In . SVG Version: 2.1.1 Build 1)  -->
  <defs>
    <style>
      .st0 {
        fill: #eae7e2;
      }
    </style>
  </defs>
  <g id="outlined_crest1" data-name="outlined_crest">
    <path class="st0" d="M7.16,13.99l-1.81.51,2.21.48.36.08,1.17,1.13.99.6.1.42c.04.16.13.3.25.4l-.37.71-1.11.51-1.83-.17,1.27.81,1.78.28,1.43-.56.94.11.5.78,1.2,2.93c.09.21.19.42.31.62.41.68.82,1.36,1.22,2.04.17.28.34.56.5.85.03.06.07.11.12.15.13.09.32.02.4-.11.15-.21.13-.51.11-.76-.15-1.75-.11-3.62.78-5.14.12-.21.27-.43.28-.67.02-.42-.5-.56-.77-.78-.59-.48-1.17-.96-1.76-1.44l-1.27-2.17-.42-1.89.07-1.32c.01-.23-.05-.45-.17-.64l-.74-1.18-1.27-1.25.49,1.86-.05,1.79-.27,1.04-.82-1.22-1.47-1.22-2.51-.39,1.27.89.93,1.45.79,1.2-1.44-.82-1.4.12Z"/>
    <path class="st0" d="M24.77,8.98l-3.57.68-.08.59c-.08.58.13,1.16.56,1.57l.09.08h.08s.4.82.4.82l.56.25-.08-.33c-.05-.21-.03-.43.07-.62l.11-.22,1.55-.14.13.53.53.54v-.18c-.03-.23.03-.47.16-.67l.18-.28c.52,0,1.03.04,1.54.13v.6l.48.65v-.49c0-.2.04-.4.13-.58.01-.03.04-.04.07-.03.65.17,1.2.59,1.51,1.17l.21.39c-.24.23-.55.36-.88.38l-.42-.76-.15.37-.03.3-.86-.19c-.1-.02-.21-.06-.3-.12-.31-.2-.46-.55-.42-.89l.05-.35-.55.54-.15.52c-.37-.06-.75-.08-1.12-.06-.15,0-.3-.06-.38-.19-.1-.14-.16-.3-.19-.46l-.07-.41-.39.65v.57l-1.32.29c-.23.05-.37.29-.3.51l.21.67c.11.33.34.61.65.77l1.07.56s0-1.13.65-1.33c.65-.19,3.97-.21,5.02,1.45-4.01.43-8.74.59-10.5,4.9-.59,1.45-1.3,4.41-.35,5.81.22.32.1.75-.25.92l-3.36,1.61c-.65.31-1.39.43-2.11.34l-2-.25-1.09-2.39-3.15-.39,1.59,1.28.68,1.89-2.27-.95-2.06,1.17,2.36.5,1.67,1.06-2.74.73-.65,2.2,2.45-.78c.52-.16,1.07-.21,1.6-.13l1.36.2-.02.71c-.01.42-.19.82-.5,1.12l-1.1,1.05,2.04-.39c.72-.14,1.34-.57,1.71-1.19l1.11-1.86,4.53.17.81.55c.48.33,1.05.5,1.63.5h1.19l-1.3-1.52s.04-.02.05-.03l1.5-.83.65.93c.87,1.25,2.02,2.29,3.36,3.05,0,0,1.86,1.05,1.86,1.05-1.03,1.45-2.53,2.81-3.14,4.52-.58,1.62-.74,4.24-.15,5.89.63,1.75,2.69,3.3,4.61,3.3h5.96l-3.41,2.11c-.99.61-1.83,1.41-2.49,2.35-.29.41-.68.74-1.14.95l-.62.29c-.22.1-.4.27-.52.47l-.49.8c-.56,0-1.11.18-1.56.5l-1.15.82-.56,1.29,1.83-.69,1.68-.15-.11.18c-.22.37-.32.8-.3,1.23l.17,3.06,1.1-2.62c.19-.46.5-.86.9-1.16l1.05-.8-.2,1.12c-.12.68.03,1.37.41,1.95l1.3,1.94v-2.46c0-.65.12-1.3.36-1.91l.42-1.08.8-.28.39.36c.32.3.51.72.51,1.16v1.87l1.34-1.42.22-1.41c.05-.34,0-.69-.15-.99l-.86-1.74c.08.17.65-.82,1.62-1.41.67-.41,1.83-.44,1.93-.53.54-.5,1.21-1.18,1.78-1.94l.53.4c.24.18.41.43.49.72l.29,1.04.36-1.29c.04-.14.06-.29.05-.43l-.03-.89c0-.23-.07-.45-.18-.65l-.4-.72,1.07-.08c.21-.02.42-.08.6-.19l1.26-.75,1.15-1.29-1.7.34c-.28.06-.58.05-.85-.03l-.69-.19c-.98-.27-1.11-1.46-2.05-1.8-.3-.11-.62-.11-.93-.15-.82-.1-1.58-.45-2.4-.56-.9-.12-1.82.04-2.73-.01-1.05-.06-.71-1.32-.66-2.05.07-1.01.26-2.04.85-2.89.49-.69.98-1.38,1.47-2.07-.25.36.43,1.81.59,2.16.35.74.83,1.42,1.42,2,.97.96,2.19,1.48,3.51,1.81,1.5.37,3.01-.53,4.18-1.56,1.59-1.4,2.01-3.05,2.23-5.05.24-2.19.17-4.47-.46-6.59-.65-2.21-1.43-4.22-1.4-6.55,0-.55.03-1.11.24-1.62.13-.31.34-.6.62-.82.38-.3.87-.44,1.35-.26.46.17.93.35,1.39.52-.24-.8-.37-1.77-.81-2.49-.39-.65-1.13-1.06-1.89-1.16-.79-.1-1.44.15-2.17.37-.24-.76.35-1.67.57-2.38.31-.98.45-2.02.41-3.04-.01-.42-.06-.85-.2-1.25-.31-.91-1.1-1.61-2.01-1.92-.62-.21-1.47-.42-2.3-.62.74.77,1.88,1.59,1.98,2.72.05.55-.07,1.1-.19,1.64-.17.74-.34,1.48-.65,2.18-.85,1.96-2.52,3.43-2.94,5.58-.42,2.11-.04,4.43.8,6.39.56,1.31,1.37,2.5,2.1,3.72s1.42,2.51,1.68,3.9c.43,2.24-.81,6.14-3.87,5.02l-.34-.12c-.75-.28-1.36-.85-1.66-1.59l-2.04-4.95c-.25-.61-.6-1.19-1.03-1.7l-1.54-1.81c-1.25-1.47-1.16-4.41-.43-6.1,1.12-2.6,4.92-4.44,4.54-7.56l-.33-2.63.93.42c.39.18.83.26,1.26.24l1.11-.06-1.93-1.5c-.3-.23-.56-.52-.75-.84l-1.03-1.68-.06-.49c.27-.08.52-.23.72-.45l.88-.98-.58.09c-.66.11-1.34-.07-1.86-.49l-.34-.28c-.39-.31-.83-.54-1.31-.68l-.58-.16-.08-1.27.64-1.51-2.29.68-1.04,1.05-3.77.5-1.78.78Z"/>
    <path class="st0" d="M23.92,54.69s.66-1.05.66-1.05c.35-.56-.05-1.64-.17-2.24-.41-2.01-1.36-3.84-2.2-5.7-.12-.27-.17-.57-.13-.86l.07-.54c.03-.24.22-.43.46-.47l.4-.06c.35-.06.64-.32.71-.67l.36-1.68c.17-.78.54-1.5,1.08-2.1l.64-.71c.22-.65-.05-1.37-.64-1.72l-1.25-.75c-.23-.14-.51-.2-.78-.16l-2.03.3c-.47.07-.92.21-1.35.41l-3.62,1.71-1.76.89c-.49.25-.86.69-1.01,1.22l-.11.38c-.08.26,0,.54.2.73l2.16,2.01c.47.44.86.96,1.15,1.53l1.27,2.49c.13.25.03.56-.23.69-.32.15-.7.11-.97-.11l-2.53-2-1.7-.63-.67-1.19-.9-.84-2.05-.66,1.33,1.56.36,1.11.13.87-1.16-1.1-1.46-.08-1.79.49,1.64.5,1.52,1.11v.83h-1.35l-.8.31-1,1.14,1.75-.28,1.69.28.43.34c.27.21.61.3.95.26l.35-.05.27.28-.8,1.18-1.82.84h2.2l1.7-.67.88-.85,1.08.1,3.75,1.34,1.08.17-.18.69-.73.91-1.34,1,2.35-.42,1.1-.55.52-.29-.52.67v1.39l.8,1.84v-1.28l.1-.33c.09-.32.33-.58.64-.72l.66-.28c.26-.11.47-.29.62-.52Z"/>
    <path class="st0" d="M27,0H0v40.34C0,42.46.17,44.57.51,46.65c.89,5.42,3.19,9.69,6.95,13.75,2.94,3.17,6.32,6.02,10.2,8.02,2.97,1.54,3.28,1.99,9.34,3.58,6.06-1.59,6.37-2.04,9.34-3.58,3.87-2.01,7.25-4.85,10.2-8.02,3.76-4.06,6.06-8.33,6.95-13.75.34-2.08.51-4.19.51-6.31V0h-27ZM50.62,40.34c0,1.93-.16,3.87-.47,5.78-.75,4.57-2.63,8.28-6.11,12.03-2.98,3.21-6.1,5.68-9.27,7.32-.46.24-.86.45-1.21.64-1.75.94-2.54,1.36-6.56,2.44-4.01-1.07-4.8-1.5-6.56-2.44-.35-.19-.75-.4-1.21-.64-3.17-1.65-6.29-4.11-9.27-7.32-3.47-3.75-5.36-7.45-6.11-12.03-.31-1.91-.47-3.85-.47-5.78V3.34h47.23v37.01Z"/>
  </g>
</svg>