<svg width="65" height="69" viewBox="0 0 65 69" fill="none" xmlns="http://www.w3.org/2000/svg">
<path d="M21.0203 54.0981C21.5966 54.6704 21.5753 56.3019 20.8385 56.8903C19.693 57.8064 18.2145 57.5157 16.7384 57.7026C17.2179 58.3648 18.146 58.4433 18.8687 58.3279L21.0935 57.9726C21.2896 59.9686 21.162 61.8101 20.7865 63.7184C20.3378 66.0075 16.4975 63.4807 15.3851 61.2101C14.4121 59.2279 14.3601 57.0611 14.2302 54.892C14.1145 52.979 14.1358 51.186 14.5798 49.3353L15.6166 49.0469C16.3818 46.9031 16.6581 41.9557 16.7125 39.4497C16.8778 32.0424 17.2084 24.7527 16.8423 17.3385C16.7597 15.684 15.9921 14.1887 15.9992 12.4649C16.0134 9.71659 15.8221 7.06289 16.5046 4.36303C16.951 2.59542 18.7507 3.18847 20.6259 3.1377L20.111 8.38974L18.5121 10.2473C19.6481 10.2889 19.9221 9.34508 20.6991 8.99894L22.2697 10.0281C22.1799 9.1074 21.5186 8.97125 20.9731 8.35051C21.0817 7.00058 20.8999 5.3899 21.3864 4.07227C22.1421 2.03238 24.7543 1.33549 26.6106 2.01392C26.1619 4.25918 26.0084 11.6388 26.3485 13.4572L26.9979 16.9208C25.9351 17.6085 24.844 17.9362 23.6797 18.3377C21.7926 20.9476 21.6249 27.3488 21.7525 30.584L22.0264 37.4975C20.7227 37.8459 21.1408 29.4417 21.1573 28.5672L21.3557 18.6746C21.3675 18.1323 21.3132 17.6039 20.803 17.2647L20.4724 19.4338L19.2726 19.3623C17.9051 21.0929 17.8248 28.461 17.7918 30.9209C17.7162 36.5191 17.728 41.9834 18.3988 47.5054C18.5782 48.973 19.5371 50.0807 20.8833 50.4983C21.4501 50.6737 21.7288 51.2621 21.6084 51.7975L21.188 53.6851L17.1021 53.5559C18.172 54.5666 19.523 54.022 21.0156 54.0958L21.0203 54.0981Z" fill="#CC2211"/>
<path d="M32.6803 11.7819L32.2954 18.7184C30.9728 19.2423 29.2747 19.4615 28.3819 18.0077C25.817 13.8264 26.4949 8.02745 26.9791 3.25539C27.1113 1.947 28.0159 1.01012 29.3101 0.78398L32.9472 0.14709C34.506 -0.125204 36.1025 -0.0144405 37.6141 0.437844C40.5072 1.3078 40.9749 4.22688 40.6253 6.79751L39.8554 12.4672C39.4255 15.6378 37.8125 19.9368 33.8943 19.9599L33.285 11.9272C33.2755 11.8119 33.0842 11.5027 33.0228 11.5442L32.6803 11.7819ZM33.2472 7.22211C33.1551 6.43753 33.0252 5.80757 32.3095 5.54912C32.071 6.04986 31.9151 6.72829 31.8939 7.17365L33.2472 7.22211Z" fill="#CC2211"/>
<path d="M4.52101 27.778C4.19745 28.4887 3.74871 29.0841 3.163 29.511C2.28678 29.0264 1.11771 28.4818 0.716211 27.5911C-0.0112127 25.9781 -0.0348356 24.1458 0.0171233 22.3506C0.180085 16.8978 0.820128 11.6273 1.7483 6.26677C2.69537 4.39302 8.68716 6.7629 10.2011 7.45056C9.3768 10.4066 8.30219 13.7918 9.59408 16.637L4.51865 27.778H4.52101Z" fill="#CC2211"/>
<path d="M61.9214 29.4694C61.1373 29.1533 60.7098 28.2833 60.398 27.6026L55.5163 16.9901C57.3041 14.4702 56.2791 10.1666 55.6556 7.27057C57.1884 6.49753 61.7513 4.83608 62.9653 5.91371C63.2085 6.12832 63.3219 6.68214 63.3904 7.11365C64.2264 12.2642 64.8806 17.2924 64.9917 22.5213C65.0294 24.2612 64.9633 25.9965 64.2737 27.598C63.9312 28.3964 62.8236 29.0494 61.919 29.4717L61.9214 29.4694Z" fill="#CC2211"/>
<path d="M45.3985 45.3894C45.4103 45.6178 45.2379 45.9801 45.1174 45.9847C44.1491 46.0193 44.0452 41.688 44.0617 40.7927L44.4679 19.8653L44.6333 15.7394C44.638 15.6378 44.5577 15.4117 44.5435 15.354C44.5222 15.2617 44.1278 15.4048 44.0971 15.5294L43.2374 19.1084C42.3352 19.1546 38.9012 18.5684 39.2815 17.2301C39.8271 15.3009 40.2167 13.4364 40.5474 11.5188L42.5478 11.5442C42.0542 10.222 40.3112 11.2442 40.6041 9.64044C40.9347 7.82438 41.1945 6.08217 41.0599 4.25688L40.8662 1.66317C42.0873 1.82931 42.9989 2.15699 43.894 2.8608C45.7834 4.34918 44.6143 7.75747 45.4457 9.76967C45.9133 7.78977 45.9464 6.03371 46.2109 4.07919L48.4215 4.31687C49.1017 4.39072 49.5717 4.94915 49.6331 5.62527C49.8032 7.51748 49.7677 9.352 49.6969 11.3111C48.8018 11.3111 48.2822 11.2004 47.3209 11.4404L49.6614 12.3495C49.5457 14.5071 48.8608 16.4824 47.7295 18.2869C47.1155 19.2653 46.5557 20.2876 46.3101 21.4229C45.9133 23.2528 45.5449 25.0043 45.4173 26.9057C45.0017 33.0923 45.1032 39.1197 45.4008 45.394L45.3985 45.3894Z" fill="#CC2211"/>
<path d="M31.1901 67.9159C30.0942 70.475 26.8562 67.8213 25.3801 66.9029C24.3032 66.2314 23.4718 65.5045 23.0302 64.2746C22.4019 62.5323 22.0737 60.6724 21.9768 58.8264C24.0693 59.9894 25.4061 61.877 27.5837 62.7631C25.7911 60.857 23.9206 59.5233 22.7255 57.4187C21.8162 55.815 21.4383 54.0705 21.9508 52.3121C22.1847 51.516 22.709 50.9598 23.5805 50.8422C26.3555 50.4683 29.0952 50.676 31.8348 51.2991C31.9695 52.3121 32.6615 56.2303 31.4475 56.5003L27.7773 55.0004C27.6828 54.9612 27.364 54.9981 27.2955 55.0742C27.2105 55.1689 27.449 55.4665 27.5955 55.545L31.4333 57.6403C31.7498 60.6032 32.3521 65.1953 31.1877 67.9113L31.1901 67.9159Z" fill="#CC2211"/>
<path d="M39.1398 67.429C38.3132 68.3474 36.3671 69.8289 35.1224 68.4028C33.6014 66.6583 32.8386 62.6223 32.8032 60.2109C33.2354 60.2017 38.5588 64.0553 38.077 63.1415C37.4039 61.8654 30.876 60.2594 33.4526 52.0006C35.89 51.2898 39.8034 50.6045 42.2479 51.3083C42.4699 52.6051 43.6389 56.7749 42.2219 57.4603C40.656 58.2172 38.8186 56.0042 38.2966 56.7311L42.2479 59.011C43.4335 63.1092 41.6598 64.6322 39.1398 67.429Z" fill="#CC2211"/>
<path d="M63.8084 53.5213C63.2558 55.1689 58.8511 58.5218 56.2319 56.7865C56.7467 53.4659 57.101 50.2376 57.075 46.8362C57.0703 46.2616 56.6593 45.9455 56.0217 45.7517C56.5649 44.2171 57.1624 42.7241 57.8237 41.215L61.2128 33.4961C63.1896 34.5668 64.1627 44.0671 64.2666 46.1993C64.3823 48.6154 64.5925 51.1906 63.8108 53.5213H63.8084Z" fill="#CC2211"/>
<path d="M7.97628 56.8626C5.4303 58.3718 1.49322 55.3788 0.572135 53.5789C0.0619935 52.5798 0.125772 51.1768 0.080898 50.0299C-0.0962344 45.2786 0.482401 40.6611 1.7365 36.1106C2.00338 35.1391 2.38125 34.3776 2.98587 33.4292C3.64244 34.2415 3.75345 35.0053 4.12897 35.8452L7.93613 44.344C8.13452 44.7848 8.25497 45.364 8.36125 45.8186C7.77317 45.7817 7.15202 45.8393 7.12132 46.3516C6.9064 49.8914 7.34805 53.2282 7.97628 56.8649V56.8626Z" fill="#CC2211"/>
<path d="M49.7039 57.9564C49.7819 59.0202 50.0818 60.5063 49.4654 61.4639C48.66 62.7146 45.6795 65.3083 44.2317 64.8468C42.9517 64.4384 43.0083 61.8216 43.0013 60.7532C42.9965 59.7725 42.6423 58.5818 42.9257 57.6703C43.2847 56.5096 43.5397 55.6165 43.2917 54.3635C43.1406 53.5951 43.3508 52.6605 43.4264 51.8575C43.5043 51.0406 43.9318 50.5076 44.7112 50.2214C46.5722 49.5384 48.4451 49.243 50.4786 49.2153C50.6085 50.766 50.6274 52.049 50.3959 53.6159L46.0597 53.242C46.8486 54.2366 47.9775 53.9551 48.9789 54.0035L50.3723 54.0705C50.2519 54.9681 50.3275 56.1127 49.6307 56.7057C48.5443 57.631 46.9147 57.3611 45.4787 57.2664C45.5992 57.9795 46.5699 58.1687 47.2501 58.1226L49.7039 57.9564Z" fill="#CC2211"/>
<path d="M14.1098 49.7461C13.4508 52.9513 13.8264 56.1173 14.2137 59.2625C14.3318 60.2225 13.5548 61.2747 12.7825 61.727C11.1647 62.6777 9.17133 60.2963 8.74621 58.3141C8.06366 55.1435 7.14257 49.3399 7.59367 46.2086C9.79011 46.2939 9.96487 49.183 10.1089 50.7568L10.6687 48.6523C10.7868 48.2046 11.1788 47.6692 11.5118 47.4754C11.8897 47.2539 12.7211 47.3531 13.1344 47.5077C14.1688 47.8977 14.3294 48.6823 14.1098 49.7461Z" fill="#CC2211"/>
<path d="M51.2226 61.1709C50.4597 60.1232 49.6024 57.1349 50.4951 56.175C50.9982 53.8697 51.0643 51.5737 50.9273 49.183C50.5518 48.7815 50.3605 47.8723 50.899 47.5585C52.0917 46.8639 55.2777 45.7701 56.5838 46.4762C56.9546 49.6399 56.076 55.1366 55.4265 58.3441C55.1832 59.5463 54.5479 60.6632 53.667 61.427C52.8876 62.1031 51.8626 62.0523 51.2226 61.1685V61.1709Z" fill="#CC2211"/>
<path d="M53.4568 18.8246C51.7658 17.8923 50.54 16.5862 49.6662 14.9894C49.8315 14.1956 50.0299 13.3972 50.0417 12.6403C50.0488 12.188 49.7748 11.8026 50.1007 11.4242L50.1976 6.93366C50.7455 5.99217 53.8748 6.08217 54.8668 6.16524C55.554 8.4682 55.9603 10.6119 56.1232 12.9703C56.024 14.0248 56.1161 15.2755 55.469 16.1409L53.4592 18.8246H53.4568Z" fill="#CC2211"/>
<path d="M11.7268 18.7854C11.0584 17.8554 10.4892 17.0293 9.89876 16.0832C8.58325 13.9764 10.2625 8.40589 11.1883 6.06601C12.7754 6.02679 14.2279 6.16524 15.6378 6.78136C15.5245 9.58045 15.4584 12.2157 15.874 14.9756C14.9458 16.6185 13.6327 17.7654 11.7268 18.7854Z" fill="#CC2211"/>
</svg>
