<?xml version="1.0" encoding="UTF-8"?>
<svg id="Layer_1" data-name="Layer 1" xmlns="http://www.w3.org/2000/svg" viewBox="0 0 720 720">
  <defs>
    <style>
      .cls-1 {
        fill: #00071a;
      }
    </style>
  </defs>
  <g>
    <g>
      <path class="cls-1" d="M74.53,448.94l29.12,16.81c1.43.83,2.93,1.49,4.46,1.99v-69.94h-14.97c-.05,19.43-7.04,37.26-18.61,51.14Z"/>
      <path class="cls-1" d="M123.11,467.74c1.53-.5,3.02-1.16,4.45-1.99l29.12-16.81c-11.57-13.88-18.56-31.71-18.61-51.14h-14.96v69.94Z"/>
      <path class="cls-1" d="M200.68,297.69l-73.12-42.22c-7.4-4.27-16.51-4.27-23.91,0l-73.12,42.22c-7.4,4.27-11.95,12.16-11.95,20.7v84.44c0,8.54,4.55,16.43,11.95,20.7l30.78,17.78c10.41-11.54,16.78-26.79,16.83-43.51h-38.26v-29.39h12.02c23.08,0,25.78-67.33,25.78-67.33h-5.05v-10.54h85.96v10.54h-5.05s2.7,67.33,25.78,67.33h12.02v29.39h-38.27c.05,16.72,6.41,31.97,16.82,43.51h.01l30.78-17.78c7.4-4.27,11.96-12.16,11.96-20.7v-84.44c0-8.54-4.56-16.43-11.96-20.7Z"/>
      <polygon class="cls-1" points="123.11 340.38 133.4 340.38 115.61 309.56 97.81 340.38 108.11 340.38 108.11 397.59 108.11 397.8 123.11 397.8 123.11 397.59 123.11 340.38"/>
      <polygon class="cls-1" points="153.07 370.77 163.36 370.77 145.57 339.95 127.78 370.77 138.07 370.77 138.07 397.59 138.07 397.8 153.07 397.8 153.07 397.59 153.07 370.77"/>
      <polygon class="cls-1" points="93.15 397.6 93.15 370.57 103.44 370.57 85.65 339.75 67.85 370.57 78.15 370.57 78.15 397.59 78.14 397.59 78.14 397.8 93.14 397.8 93.14 397.6 93.15 397.6"/>
    </g>
    <g>
      <path class="cls-1" d="M257.31,303.17h23.7c8.82,0,15,5.16,15,12.54,0,4.44-2.76,8.16-6.9,10.32,5.16,1.98,8.7,6.18,8.7,11.58,0,7.98-6.42,13.56-15.6,13.56h-24.9v-48ZM279.81,321.47c2.4,0,4.08-1.68,4.08-4.14s-1.68-4.08-4.08-4.08h-10.8v8.22h10.8ZM280.59,341.09c2.94,0,4.98-2.04,4.98-4.98s-2.04-5.04-4.98-5.04h-11.58v10.02h11.58Z"/>
      <path class="cls-1" d="M319.41,303.17h11.64l18.66,48h-11.94l-3.48-9.24h-18l-3.48,9.24h-12l18.6-48ZM330.69,332.21l-5.4-14.28-5.4,14.28h10.8Z"/>
      <path class="cls-1" d="M355.11,303.17h23.1c9.18,0,15.6,6.24,15.6,15.18,0,6.72-3.9,12.18-9.84,14.34l12.06,18.48h-13.2l-11.04-17.34h-4.98v17.34h-11.7v-48ZM377.49,323.33c2.76,0,4.62-1.98,4.62-4.8s-1.86-4.86-4.62-4.86h-10.68v9.66h10.68Z"/>
      <path class="cls-1" d="M401.67,303.17h35.58v10.2h-23.88v8.04h20.28v10.26h-20.28v9.24h23.88v10.26h-35.58v-48Z"/>
      <path class="cls-1" d="M466.64,303.17h16.38l12.78,32.52,12.78-32.52h16.44v48h-11.58v-30.18l-12,30.18h-11.4l-11.88-30v30h-11.52v-48Z"/>
      <path class="cls-1" d="M534.62,303.17h35.58v10.2h-23.88v8.04h20.28v10.26h-20.28v9.24h23.88v10.26h-35.58v-48Z"/>
      <path class="cls-1" d="M589.04,313.67h-13.74v-10.5h38.94v10.5h-13.56v37.5h-11.64v-37.5Z"/>
      <path class="cls-1" d="M629.84,303.17h11.64l18.66,48h-11.94l-3.48-9.24h-18l-3.48,9.24h-12l18.6-48ZM641.12,332.21l-5.4-14.28-5.4,14.28h10.8Z"/>
      <path class="cls-1" d="M665.54,303.17h11.7v37.5h24.18v10.5h-35.88v-48Z"/>
      <path class="cls-1" d="M254.91,400.39h12c0,3.48,2.22,6.18,6.54,6.18,3.06,0,5.28-1.38,5.28-4.02,0-3.3-3.66-4.62-8.34-6.72-7.44-3.24-14.46-6.54-14.46-14.82s7.38-13.5,16.62-13.5c9.9,0,16.26,6.3,16.26,15.54h-11.4c0-3.12-1.92-5.04-4.86-5.04-2.7,0-4.62,1.62-4.62,3.66,0,2.64,3.06,3.48,9.72,6.12,7.08,2.76,13.26,6.12,13.26,14.46,0,9.18-7.2,14.58-17.22,14.58-11.16,0-18.78-6.78-18.78-16.44Z"/>
      <path class="cls-1" d="M307.29,378.67h-13.74v-10.5h38.94v10.5h-13.56v37.5h-11.64v-37.5Z"/>
      <path class="cls-1" d="M348.09,368.17h11.64l18.66,48h-11.94l-3.48-9.24h-18l-3.48,9.24h-12l18.6-48ZM359.37,397.21l-5.4-14.28-5.4,14.28h10.8Z"/>
      <path class="cls-1" d="M383.79,368.17h12.9l16.5,29.82v-29.82h11.64v48h-12.9l-16.44-29.82v29.82h-11.7v-48Z"/>
      <path class="cls-1" d="M434.43,368.17h19.56c14.58,0,24.78,10.02,24.78,24.18s-10.2,23.82-24.78,23.82h-19.56v-48ZM453.81,405.13c7.68,0,13.02-5.28,13.02-12.78s-5.34-13.14-13.02-13.14h-7.68v25.92h7.68Z"/>
      <path class="cls-1" d="M497.61,368.17h11.64l18.66,48h-11.94l-3.48-9.24h-18l-3.48,9.24h-12l18.6-48ZM508.89,397.21l-5.4-14.28-5.4,14.28h10.8Z"/>
      <path class="cls-1" d="M533.31,368.17h23.1c9.18,0,15.6,6.24,15.6,15.18,0,6.72-3.9,12.18-9.84,14.34l12.06,18.48h-13.2l-11.04-17.34h-4.98v17.34h-11.7v-48ZM555.69,388.33c2.76,0,4.62-1.98,4.62-4.8s-1.86-4.86-4.62-4.86h-10.68v9.66h10.68Z"/>
      <path class="cls-1" d="M579.87,368.17h19.56c14.58,0,24.78,10.02,24.78,24.18s-10.2,23.82-24.78,23.82h-19.56v-48ZM599.24,405.13c7.68,0,13.02-5.28,13.02-12.78s-5.34-13.14-13.02-13.14h-7.68v25.92h7.68Z"/>
    </g>
  </g>
  <g>
    <path class="cls-1" d="M268.18,465.68c-1.85,0-3.47-.33-4.86-.99-1.39-.66-2.47-1.59-3.24-2.79-.77-1.2-1.15-2.6-1.15-4.21h3.78c.02.91.25,1.75.67,2.5.42.76,1.03,1.36,1.84,1.8.8.44,1.79.67,2.97.67,1.01,0,1.88-.17,2.61-.5.73-.34,1.29-.8,1.67-1.39.38-.59.58-1.27.58-2.03,0-.89-.21-1.62-.61-2.2-.41-.58-.95-1.05-1.64-1.42-.68-.37-1.48-.7-2.38-.99-.9-.29-1.84-.6-2.83-.94-1.99-.65-3.47-1.49-4.45-2.52-.97-1.03-1.46-2.38-1.46-4.03,0-1.42.34-2.65,1.01-3.69s1.61-1.86,2.83-2.45,2.65-.88,4.3-.88,3.06.3,4.28.9c1.22.6,2.18,1.43,2.88,2.48.7,1.06,1.04,2.29,1.04,3.71h-3.82c0-.65-.17-1.28-.5-1.91-.34-.62-.84-1.13-1.51-1.53-.67-.4-1.5-.59-2.48-.59-.82-.02-1.55.11-2.2.4s-1.15.71-1.51,1.26c-.36.55-.54,1.21-.54,1.98s.16,1.39.49,1.85c.32.47.8.87,1.42,1.21.62.34,1.35.64,2.18.92.83.28,1.75.58,2.75.92,1.25.41,2.36.91,3.33,1.49.97.59,1.74,1.34,2.3,2.27.56.92.85,2.11.85,3.55,0,1.25-.32,2.41-.97,3.49-.65,1.08-1.61,1.96-2.88,2.65-1.27.68-2.86,1.03-4.75,1.03Z"/>
    <path class="cls-1" d="M282.98,443.68c-.7,0-1.27-.22-1.71-.65-.44-.43-.67-.98-.67-1.66s.22-1.18.67-1.6c.44-.42,1.01-.63,1.71-.63s1.24.21,1.69.63.68.95.68,1.6-.23,1.22-.68,1.66-1.02.65-1.69.65ZM281.14,465.24v-18.14h3.6v18.14h-3.6Z"/>
    <path class="cls-1" d="M289.89,465.24v-18.14h3.24l.22,3.1c.58-1.08,1.39-1.94,2.45-2.57,1.06-.64,2.27-.95,3.64-.95,1.44,0,2.68.29,3.71.86,1.03.58,1.84,1.45,2.41,2.61.58,1.16.86,2.62.86,4.37v10.73h-3.6v-10.37c0-1.68-.37-2.95-1.12-3.82-.74-.86-1.82-1.3-3.24-1.3-.94,0-1.78.22-2.52.67-.74.45-1.34,1.1-1.78,1.96-.44.86-.67,1.92-.67,3.17v9.68h-3.6Z"/>
    <path class="cls-1" d="M319.41,465.68c-1.75,0-3.31-.4-4.68-1.21-1.37-.8-2.44-1.91-3.22-3.33-.78-1.42-1.17-3.06-1.17-4.93s.39-3.56,1.17-4.99c.78-1.43,1.85-2.54,3.22-3.35,1.37-.8,2.93-1.21,4.68-1.21,2.21,0,4.06.58,5.54,1.73,1.49,1.15,2.44,2.71,2.84,4.68h-3.74c-.24-1.06-.79-1.87-1.64-2.45s-1.87-.86-3.04-.86c-.96,0-1.85.25-2.66.74-.82.49-1.47,1.21-1.96,2.16s-.74,2.12-.74,3.51c0,1.03.14,1.95.43,2.75.29.8.68,1.48,1.17,2.03.49.55,1.06.97,1.71,1.24.65.28,1.33.41,2.05.41.79,0,1.51-.13,2.14-.38.63-.25,1.17-.63,1.62-1.13s.75-1.1.92-1.8h3.74c-.41,1.92-1.36,3.46-2.84,4.63-1.49,1.17-3.34,1.75-5.54,1.75Z"/>
    <path class="cls-1" d="M340.21,465.68c-1.73,0-3.26-.4-4.61-1.19s-2.39-1.9-3.15-3.31c-.76-1.42-1.13-3.06-1.13-4.93s.38-3.59,1.13-5.02c.76-1.43,1.81-2.54,3.15-3.35,1.34-.8,2.9-1.21,4.68-1.21s3.3.4,4.57,1.19,2.26,1.84,2.95,3.15c.7,1.31,1.04,2.75,1.04,4.34,0,.24,0,.5-.02.77-.01.28-.03.58-.05.92h-14.83v-2.56h11.3c-.07-1.51-.58-2.69-1.51-3.55-.94-.85-2.1-1.28-3.49-1.28-.98,0-1.88.22-2.7.67-.82.44-1.47,1.09-1.96,1.94-.49.85-.74,1.93-.74,3.22v1.01c0,1.34.25,2.48.74,3.4.49.92,1.15,1.62,1.96,2.09.82.47,1.7.7,2.66.7,1.15,0,2.1-.25,2.84-.76.74-.5,1.3-1.19,1.66-2.05h3.6c-.31,1.1-.84,2.09-1.58,2.97s-1.66,1.57-2.75,2.07c-1.09.5-2.35.76-3.76.76Z"/>
    <path class="cls-1" d="M365.13,465.24v-21.13l-4.39,1.12v-2.7l5.72-2.48h2.34v25.2h-3.67Z"/>
    <path class="cls-1" d="M382.37,465.68c-1.63,0-3.02-.32-4.18-.95-1.15-.63-2.06-1.49-2.74-2.56-.67-1.07-1.08-2.23-1.22-3.47h3.35c.24,1.25.78,2.21,1.62,2.9.84.68,1.91,1.03,3.2,1.03,1.2,0,2.25-.36,3.17-1.08.91-.72,1.64-1.81,2.2-3.28.55-1.46.86-3.31.94-5.54.02-.07.04-.14.04-.22v-.22c-.38.72-.91,1.38-1.58,1.98-.67.6-1.46,1.08-2.36,1.42s-1.9.52-3.01.52c-1.42,0-2.74-.33-3.98-.99-1.24-.66-2.24-1.6-3.02-2.83-.78-1.22-1.17-2.65-1.17-4.28,0-1.46.35-2.84,1.06-4.14s1.72-2.35,3.02-3.15c1.31-.8,2.85-1.21,4.63-1.21s3.4.34,4.66,1.03c1.26.68,2.27,1.61,3.02,2.77s1.31,2.46,1.66,3.89c.35,1.43.52,2.9.52,4.41,0,2.76-.38,5.19-1.15,7.29-.77,2.1-1.88,3.74-3.35,4.91-1.46,1.18-3.24,1.76-5.33,1.76ZM382.59,453.15c1.03,0,1.96-.23,2.77-.7.82-.47,1.46-1.1,1.94-1.89.48-.79.72-1.67.72-2.63s-.24-1.9-.72-2.68c-.48-.78-1.13-1.39-1.96-1.84-.83-.44-1.76-.67-2.79-.67s-1.92.22-2.74.67c-.82.44-1.46,1.06-1.93,1.84-.47.78-.7,1.69-.7,2.72s.23,1.94.7,2.72c.47.78,1.11,1.39,1.93,1.82.82.43,1.74.65,2.77.65Z"/>
    <path class="cls-1" d="M405.91,465.68c-1.85,0-3.4-.34-4.66-1.03-1.26-.68-2.27-1.61-3.04-2.77-.77-1.16-1.33-2.46-1.67-3.89s-.52-2.9-.52-4.41c0-2.78.39-5.22,1.17-7.31.78-2.09,1.9-3.72,3.37-4.9,1.46-1.18,3.23-1.76,5.29-1.76,1.66,0,3.07.32,4.23.95s2.08,1.48,2.74,2.54c.66,1.06,1.06,2.22,1.21,3.49h-3.35c-.22-1.25-.75-2.21-1.6-2.9-.85-.68-1.94-1.03-3.26-1.03-1.18,0-2.23.37-3.17,1.1-.94.73-1.67,1.84-2.21,3.33s-.85,3.37-.92,5.65v.25c.36-.72.88-1.38,1.55-1.98.67-.6,1.47-1.07,2.39-1.42s1.93-.52,3.01-.52c1.42,0,2.74.33,3.98.99,1.24.66,2.24,1.6,3.01,2.83.77,1.22,1.15,2.65,1.15,4.28,0,1.46-.35,2.84-1.06,4.14s-1.71,2.35-3.01,3.15c-1.3.8-2.83,1.21-4.61,1.21ZM405.66,462.54c1.03,0,1.95-.22,2.75-.67.8-.44,1.44-1.06,1.91-1.85s.7-1.69.7-2.7-.23-1.94-.7-2.72-1.1-1.39-1.91-1.82c-.8-.43-1.72-.65-2.75-.65s-1.96.23-2.77.7c-.82.47-1.46,1.09-1.94,1.87-.48.78-.72,1.66-.72,2.65s.24,1.9.72,2.68c.48.78,1.13,1.39,1.96,1.84.83.44,1.75.67,2.75.67Z"/>
    <path class="cls-1" d="M430.86,465.24v-5.15h-12.64v-2.81l12.06-17.24h4.14v16.92h3.6v3.13h-3.6v5.15h-3.56ZM422.15,456.96h8.93v-12.96l-8.93,12.96Z"/>
  </g>
</svg>